 <svg xmlns="http://www.w3.org/2000/svg" width="48" height="56" viewBox="0 0 48 56" fill="none">
                                    <g filter="url(#filter0_dddd_7_416)">
                                    <circle cx="24" cy="21" r="20" fill="#EEEEEE"/>
                                    </g>
                                    <path d="M16 28.3125C16 29.2441 16.7679 30 17.7143 30H30.2857C31.2321 30 32 29.2441 32 28.3125V18.75H16V28.3125ZM27.4286 21.4219C27.4286 21.1898 27.6214 21 27.8571 21H29.2857C29.5214 21 29.7143 21.1898 29.7143 21.4219V22.8281C29.7143 23.0602 29.5214 23.25 29.2857 23.25H27.8571C27.6214 23.25 27.4286 23.0602 27.4286 22.8281V21.4219ZM27.4286 25.9219C27.4286 25.6898 27.6214 25.5 27.8571 25.5H29.2857C29.5214 25.5 29.7143 25.6898 29.7143 25.9219V27.3281C29.7143 27.5602 29.5214 27.75 29.2857 27.75H27.8571C27.6214 27.75 27.4286 27.5602 27.4286 27.3281V25.9219ZM22.8571 21.4219C22.8571 21.1898 23.05 21 23.2857 21H24.7143C24.95 21 25.1429 21.1898 25.1429 21.4219V22.8281C25.1429 23.0602 24.95 23.25 24.7143 23.25H23.2857C23.05 23.25 22.8571 23.0602 22.8571 22.8281V21.4219ZM22.8571 25.9219C22.8571 25.6898 23.05 25.5 23.2857 25.5H24.7143C24.95 25.5 25.1429 25.6898 25.1429 25.9219V27.3281C25.1429 27.5602 24.95 27.75 24.7143 27.75H23.2857C23.05 27.75 22.8571 27.5602 22.8571 27.3281V25.9219ZM18.2857 21.4219C18.2857 21.1898 18.4786 21 18.7143 21H20.1429C20.3786 21 20.5714 21.1898 20.5714 21.4219V22.8281C20.5714 23.0602 20.3786 23.25 20.1429 23.25H18.7143C18.4786 23.25 18.2857 23.0602 18.2857 22.8281V21.4219ZM18.2857 25.9219C18.2857 25.6898 18.4786 25.5 18.7143 25.5H20.1429C20.3786 25.5 20.5714 25.6898 20.5714 25.9219V27.3281C20.5714 27.5602 20.3786 27.75 20.1429 27.75H18.7143C18.4786 27.75 18.2857 27.5602 18.2857 27.3281V25.9219ZM30.2857 14.25H28.5714V12.5625C28.5714 12.2531 28.3143 12 28 12H26.8571C26.5429 12 26.2857 12.2531 26.2857 12.5625V14.25H21.7143V12.5625C21.7143 12.2531 21.4571 12 21.1429 12H20C19.6857 12 19.4286 12.2531 19.4286 12.5625V14.25H17.7143C16.7679 14.25 16 15.0059 16 15.9375V17.625H32V15.9375C32 15.0059 31.2321 14.25 30.2857 14.25Z" fill="#21BA72"/>
                                    <defs>
                                    <filter id="filter0_dddd_7_416" x="0" y="0" width="48" height="56" filterUnits="userSpaceOnUse" color-interpolation-filters="sRGB">
                                        <feFlood flood-opacity="0" result="BackgroundImageFix"/>
                                        <feColorMatrix in="SourceAlpha" type="matrix" values="0 0 0 0 0 0 0 0 0 0 0 0 0 0 0 0 0 0 127 0" result="hardAlpha"/>
                                        <feOffset dy="1"/>
                                        <feGaussianBlur stdDeviation="1"/>
                                        <feColorMatrix type="matrix" values="0 0 0 0 0 0 0 0 0 0 0 0 0 0 0 0 0 0 0.05 0"/>
                                        <feBlend mode="normal" in2="BackgroundImageFix" result="effect1_dropShadow_7_416"/>
                                        <feColorMatrix in="SourceAlpha" type="matrix" values="0 0 0 0 0 0 0 0 0 0 0 0 0 0 0 0 0 0 127 0" result="hardAlpha"/>
                                        <feOffset dy="3"/>
                                        <feGaussianBlur stdDeviation="1.5"/>
                                        <feColorMatrix type="matrix" values="0 0 0 0 0 0 0 0 0 0 0 0 0 0 0 0 0 0 0.04 0"/>
                                        <feBlend mode="normal" in2="effect1_dropShadow_7_416" result="effect2_dropShadow_7_416"/>
                                        <feColorMatrix in="SourceAlpha" type="matrix" values="0 0 0 0 0 0 0 0 0 0 0 0 0 0 0 0 0 0 127 0" result="hardAlpha"/>
                                        <feOffset dy="6"/>
                                        <feGaussianBlur stdDeviation="2"/>
                                        <feColorMatrix type="matrix" values="0 0 0 0 0 0 0 0 0 0 0 0 0 0 0 0 0 0 0.03 0"/>
                                        <feBlend mode="normal" in2="effect2_dropShadow_7_416" result="effect3_dropShadow_7_416"/>
                                        <feColorMatrix in="SourceAlpha" type="matrix" values="0 0 0 0 0 0 0 0 0 0 0 0 0 0 0 0 0 0 127 0" result="hardAlpha"/>
                                        <feOffset dy="11"/>
                                        <feGaussianBlur stdDeviation="2"/>
                                        <feColorMatrix type="matrix" values="0 0 0 0 0 0 0 0 0 0 0 0 0 0 0 0 0 0 0.01 0"/>
                                        <feBlend mode="normal" in2="effect3_dropShadow_7_416" result="effect4_dropShadow_7_416"/>
                                        <feBlend mode="normal" in="SourceGraphic" in2="effect4_dropShadow_7_416" result="shape"/>
                                    </filter>
                                    </defs>
                                </svg>