<svg xmlns="http://www.w3.org/2000/svg" width="48" height="56" viewBox="0 0 48 56" fill="none">
                                    <g filter="url(#filter0_dddd_7_433)">
                                    <circle cx="24" cy="21" r="20" fill="#EEEEEE"/>
                                    </g>
                                    <path d="M31.2001 15.0104V28.8758C31.2001 29.4986 30.6987 30 30.0759 30H18.0842C17.4614 30 16.96 29.4986 16.96 28.8758V12.3872C16.96 11.7644 17.4614 11.2631 18.0842 11.2631H27.4527" fill="#21BA72"/>
                                    <path d="M27.4526 11.2631V13.8862C27.4526 14.509 27.954 15.0104 28.5769 15.0104H31.2L27.4526 11.2631Z" fill="#31E791"/>
                                    <path fill-rule="evenodd" clip-rule="evenodd" d="M19.9636 19.132C19.9139 19.1313 19.8646 19.1405 19.8185 19.159C19.7725 19.1775 19.7305 19.205 19.6951 19.2399C19.6598 19.2747 19.6317 19.3163 19.6125 19.3621C19.5934 19.4079 19.5835 19.4571 19.5835 19.5067C19.5835 19.5564 19.5934 19.6056 19.6125 19.6514C19.6317 19.6972 19.6598 19.7387 19.6951 19.7736C19.7305 19.8085 19.7725 19.836 19.8185 19.8545C19.8646 19.873 19.9139 19.8822 19.9636 19.8815H24.9289H28.202C28.2517 19.8822 28.301 19.873 28.347 19.8545C28.3931 19.836 28.4351 19.8085 28.4704 19.7736C28.5058 19.7387 28.5339 19.6972 28.553 19.6514C28.5722 19.6056 28.5821 19.5564 28.5821 19.5067C28.5821 19.4571 28.5722 19.4079 28.553 19.3621C28.5339 19.3163 28.5058 19.2747 28.4704 19.2399C28.4351 19.205 28.3931 19.1775 28.347 19.159C28.301 19.1405 28.2517 19.1313 28.202 19.132H24.9289H19.9636Z" fill="#F9F9F9"/>
                                    <path fill-rule="evenodd" clip-rule="evenodd" d="M19.9636 20.631C19.9139 20.6303 19.8646 20.6395 19.8185 20.658C19.7725 20.6765 19.7305 20.704 19.6951 20.7389C19.6598 20.7738 19.6317 20.8153 19.6125 20.8611C19.5934 20.9069 19.5835 20.9561 19.5835 21.0058C19.5835 21.0554 19.5934 21.1046 19.6125 21.1504C19.6317 21.1962 19.6598 21.2378 19.6951 21.2726C19.7305 21.3075 19.7725 21.335 19.8185 21.3535C19.8646 21.372 19.9139 21.3812 19.9636 21.3805H24.9289H28.202C28.2517 21.3812 28.301 21.372 28.347 21.3535C28.3931 21.335 28.4351 21.3075 28.4704 21.2726C28.5058 21.2378 28.5339 21.1962 28.553 21.1504C28.5722 21.1046 28.5821 21.0554 28.5821 21.0058C28.5821 20.9561 28.5722 20.9069 28.553 20.8611C28.5339 20.8153 28.5058 20.7738 28.4704 20.7389C28.4351 20.704 28.3931 20.6765 28.347 20.658C28.301 20.6395 28.2517 20.6303 28.202 20.631H24.9289H19.9636Z" fill="#F9F9F9"/>
                                    <path fill-rule="evenodd" clip-rule="evenodd" d="M19.9636 23.6291C19.9139 23.6284 19.8646 23.6375 19.8185 23.6561C19.7725 23.6746 19.7305 23.7021 19.6951 23.7369C19.6598 23.7718 19.6317 23.8133 19.6125 23.8592C19.5934 23.905 19.5835 23.9541 19.5835 24.0038C19.5835 24.0535 19.5934 24.1026 19.6125 24.1485C19.6317 24.1943 19.6598 24.2358 19.6951 24.2707C19.7305 24.3055 19.7725 24.333 19.8185 24.3516C19.8646 24.3701 19.9139 24.3792 19.9636 24.3785H23.2367H25.2041C25.2537 24.3792 25.303 24.3701 25.3491 24.3516C25.3952 24.333 25.4371 24.3055 25.4725 24.2707C25.5079 24.2358 25.536 24.1943 25.5551 24.1485C25.5743 24.1026 25.5842 24.0535 25.5842 24.0038C25.5842 23.9541 25.5743 23.905 25.5551 23.8592C25.536 23.8133 25.5079 23.7718 25.4725 23.7369C25.4371 23.7021 25.3952 23.6746 25.3491 23.6561C25.303 23.6375 25.2537 23.6284 25.2041 23.6291H23.2367H19.9636ZM26.703 23.6291C26.6534 23.6284 26.6041 23.6375 26.558 23.6561C26.5119 23.6746 26.47 23.7021 26.4346 23.7369C26.3993 23.7718 26.3712 23.8133 26.352 23.8592C26.3328 23.905 26.323 23.9541 26.323 24.0038C26.323 24.0535 26.3328 24.1026 26.352 24.1485C26.3712 24.1943 26.3993 24.2358 26.4346 24.2707C26.47 24.3055 26.5119 24.333 26.558 24.3516C26.6041 24.3701 26.6534 24.3792 26.703 24.3785C26.7527 24.3792 26.802 24.3701 26.8481 24.3516C26.8942 24.333 26.9361 24.3055 26.9715 24.2707C27.0068 24.2358 27.0349 24.1943 27.0541 24.1485C27.0732 24.1026 27.0831 24.0535 27.0831 24.0038C27.0831 23.9541 27.0732 23.905 27.0541 23.8592C27.0349 23.8133 27.0068 23.7718 26.9715 23.7369C26.9361 23.7021 26.8942 23.6746 26.8481 23.6561C26.802 23.6375 26.7527 23.6284 26.703 23.6291Z" fill="#F9F9F9"/>
                                    <path fill-rule="evenodd" clip-rule="evenodd" d="M19.9636 22.1299C19.9139 22.1292 19.8646 22.1384 19.8185 22.1569C19.7725 22.1754 19.7305 22.2029 19.6951 22.2378C19.6598 22.2727 19.6317 22.3142 19.6125 22.36C19.5934 22.4058 19.5835 22.455 19.5835 22.5047C19.5835 22.5543 19.5934 22.6035 19.6125 22.6493C19.6317 22.6951 19.6598 22.7367 19.6951 22.7715C19.7305 22.8064 19.7725 22.8339 19.8185 22.8524C19.8646 22.8709 19.9139 22.8801 19.9636 22.8794H24.9289H28.202C28.2517 22.8801 28.301 22.8709 28.347 22.8524C28.3931 22.8339 28.4351 22.8064 28.4704 22.7715C28.5058 22.7367 28.5339 22.6951 28.553 22.6493C28.5722 22.6035 28.5821 22.5543 28.5821 22.5047C28.5821 22.455 28.5722 22.4058 28.553 22.36C28.5339 22.3142 28.5058 22.2727 28.4704 22.2378C28.4351 22.2029 28.3931 22.1754 28.347 22.1569C28.301 22.1384 28.2517 22.1292 28.202 22.1299H24.9289H19.9636Z" fill="#F9F9F9"/>
                                    <defs>
                                    <filter id="filter0_dddd_7_433" x="0" y="0" width="48" height="56" filterUnits="userSpaceOnUse" color-interpolation-filters="sRGB">
                                        <feFlood flood-opacity="0" result="BackgroundImageFix"/>
                                        <feColorMatrix in="SourceAlpha" type="matrix" values="0 0 0 0 0 0 0 0 0 0 0 0 0 0 0 0 0 0 127 0" result="hardAlpha"/>
                                        <feOffset dy="1"/>
                                        <feGaussianBlur stdDeviation="1"/>
                                        <feColorMatrix type="matrix" values="0 0 0 0 0 0 0 0 0 0 0 0 0 0 0 0 0 0 0.05 0"/>
                                        <feBlend mode="normal" in2="BackgroundImageFix" result="effect1_dropShadow_7_433"/>
                                        <feColorMatrix in="SourceAlpha" type="matrix" values="0 0 0 0 0 0 0 0 0 0 0 0 0 0 0 0 0 0 127 0" result="hardAlpha"/>
                                        <feOffset dy="3"/>
                                        <feGaussianBlur stdDeviation="1.5"/>
                                        <feColorMatrix type="matrix" values="0 0 0 0 0 0 0 0 0 0 0 0 0 0 0 0 0 0 0.04 0"/>
                                        <feBlend mode="normal" in2="effect1_dropShadow_7_433" result="effect2_dropShadow_7_433"/>
                                        <feColorMatrix in="SourceAlpha" type="matrix" values="0 0 0 0 0 0 0 0 0 0 0 0 0 0 0 0 0 0 127 0" result="hardAlpha"/>
                                        <feOffset dy="6"/>
                                        <feGaussianBlur stdDeviation="2"/>
                                        <feColorMatrix type="matrix" values="0 0 0 0 0 0 0 0 0 0 0 0 0 0 0 0 0 0 0.03 0"/>
                                        <feBlend mode="normal" in2="effect2_dropShadow_7_433" result="effect3_dropShadow_7_433"/>
                                        <feColorMatrix in="SourceAlpha" type="matrix" values="0 0 0 0 0 0 0 0 0 0 0 0 0 0 0 0 0 0 127 0" result="hardAlpha"/>
                                        <feOffset dy="11"/>
                                        <feGaussianBlur stdDeviation="2"/>
                                        <feColorMatrix type="matrix" values="0 0 0 0 0 0 0 0 0 0 0 0 0 0 0 0 0 0 0.01 0"/>
                                        <feBlend mode="normal" in2="effect3_dropShadow_7_433" result="effect4_dropShadow_7_433"/>
                                        <feBlend mode="normal" in="SourceGraphic" in2="effect4_dropShadow_7_433" result="shape"/>
                                    </filter>
                                    </defs>
                                </svg>