<svg width="200" height="76" viewBox="0 0 200 76" fill="none" xmlns="http://www.w3.org/2000/svg">
<path d="M48.9955 61.9106L47.4239 54.1935C47.4129 54.1415 47.3907 54.0927 47.3589 54.0505C47.3271 54.0083 47.2865 53.9737 47.2401 53.9493L46.8157 53.7339C47.158 52.8592 47.0477 52.154 46.4309 51.5048C46.7386 50.9033 46.9224 50.2446 46.9713 49.5687C46.9706 49.5567 46.9706 49.5447 46.9713 49.5328C47.0347 48.6778 46.7804 47.8297 46.2583 47.1557C45.9271 46.7527 45.5581 46.3832 45.1564 46.0527C44.4406 45.4293 43.9243 44.9798 43.9668 43.769C43.9823 43.3453 44.0035 42.959 44.0233 42.5855C44.0997 41.1938 44.1648 40.095 43.7871 38.7507C43.3514 37.1808 42.746 36.1654 41.9185 35.1011C42.3429 34.564 42.5805 33.9162 42.2155 33.1808L42.6102 32.8936C42.7003 32.8292 42.7622 32.7317 42.7828 32.6218C42.8033 32.5119 42.781 32.3982 42.7205 32.3047L37.887 24.6925C37.8344 24.6107 37.7569 24.5486 37.6663 24.5158L33.5542 23.0795C31.7772 21.0999 29.6007 19.5327 27.173 18.4848C24.7453 17.4369 22.1236 16.9329 19.4866 17.0072C16.8497 17.0815 14.2595 17.7323 11.8928 18.9153C9.52607 20.0983 7.43847 21.7857 5.77234 23.8623C5.18389 23.5348 4.42568 23.7373 3.80752 24.4153C3.27989 24.9898 2.97294 25.8041 3.29828 26.3571C0.75913 30.1475 -0.371608 34.7304 0.107686 39.2887C0.58698 43.8469 2.64515 48.0841 5.91521 51.2448C5.85965 51.4359 5.84353 51.6366 5.86787 51.8343C5.89221 52.032 5.95649 52.2225 6.05667 52.3938C6.30563 52.8434 6.73424 53.1637 7.12041 53.201C7.39059 53.9852 7.45425 54.1734 7.48678 54.2739C7.51932 54.3744 7.52781 54.3945 7.78526 55.1227C7.92671 55.5349 8.35108 55.9946 10.0061 55.9946C10.2155 55.9946 10.4446 55.9874 10.695 55.9716C10.7374 56.0908 10.7799 56.2043 10.8209 56.3091C10.8619 56.4139 10.8874 56.48 10.9157 56.559C10.9609 56.6868 11.0472 56.931 11.5225 57.0904C11.5077 57.1524 11.4703 57.2063 11.4178 57.2412L11.2396 57.359L11.3004 57.5658C11.3938 57.8919 11.4702 58.0915 11.5211 58.2236C11.5338 58.2596 11.5466 58.2897 11.555 58.3156C11.6187 58.4937 11.7616 58.8973 12.9272 58.9762C8.88719 62.1289 9.67369 65.4653 9.67369 65.4653C10.1249 63.4545 11.4108 62.5167 11.4108 62.5167C10.8449 64.0391 11.8634 64.7888 11.8634 64.7888C11.7575 65.5668 11.8551 66.3593 12.1463 67.0869C12.3132 66.2897 13.0516 64.8865 13.0516 64.8865C12.9555 62.5885 13.9555 62.2524 13.9555 62.2524C13.5329 63.2105 13.4572 64.2895 13.742 65.2987C12.8663 66.8197 12.9074 68.5562 12.9074 68.5562C14.3827 65.7282 15.1707 65.8488 15.1707 65.8488C15.5512 64.9296 16.0038 64.5677 16.0038 64.5677C15.0985 66.8398 15.3376 67.5838 15.3376 67.5838C17.5513 62.531 18.4326 62.5569 18.4326 62.5569C14.2413 70.9691 15.0518 73 15.0518 73C19.7199 65.0215 27.4999 62.1935 27.4999 62.1935L27.5508 62.1332C31.1382 59.015 32.4777 58.363 33.8131 57.8746C37.5079 56.6998 40.6171 56.5892 43.0615 57.5515C45.6939 58.5885 48.3307 62.1562 48.3561 62.1921C48.3892 62.2365 48.432 62.2726 48.481 62.2975C48.5301 62.3224 48.5842 62.3355 48.639 62.3357C48.6879 62.3353 48.736 62.3245 48.7805 62.3041C48.8545 62.2724 48.9159 62.2163 48.9549 62.145C48.9939 62.0737 49.0082 61.9911 48.9955 61.9106ZM45.7548 53.1881C45.7845 52.7155 45.4803 51.8265 42.9143 50.5396C43.429 50.6223 43.9277 50.786 44.3925 51.0251C46.3899 51.9658 46.4734 52.6552 46.182 53.4093L45.7548 53.1881ZM38.7301 55.1428C38.5785 55.1529 38.4263 55.1467 38.276 55.1242C38.1053 55.0991 37.9416 55.0384 37.7951 54.9461C37.7567 54.9222 37.7203 54.8953 37.6861 54.8656L37.6211 54.8082C37.5825 54.7774 37.5402 54.7518 37.4952 54.7321C37.3631 54.6729 37.2342 54.6067 37.109 54.5339C36.9667 54.4493 36.8453 54.3329 36.7539 54.1935C36.6692 54.0578 36.6291 53.8984 36.6394 53.7382C36.7233 53.8469 36.8258 53.9393 36.9421 54.0111C37.0485 54.0691 37.1623 54.1121 37.2802 54.1389C37.4004 54.1691 37.5305 54.1906 37.6805 54.2337C37.7677 54.2591 37.8514 54.2958 37.9294 54.3428C37.9521 54.3572 37.9761 54.3759 37.9988 54.3931L38.0313 54.4161L38.0921 54.4563C38.308 54.5557 38.5351 54.6281 38.7683 54.6717C39.0486 54.732 39.3225 54.8201 39.5859 54.9346C39.3152 55.055 39.0252 55.1246 38.7301 55.14V55.1428ZM40.0725 55.3971C40.2807 55.3551 40.4925 55.3344 40.7048 55.3353C40.9179 55.3358 41.1303 55.3594 41.3385 55.4057C41.5549 55.4491 41.7606 55.5355 41.944 55.6599C41.7358 55.7006 41.5257 55.7299 41.3145 55.7475C41.1094 55.7633 40.9071 55.7719 40.7034 55.7705C40.4997 55.7691 40.296 55.759 40.0895 55.7375C39.8776 55.7154 39.6677 55.6775 39.4614 55.624C39.6505 55.512 39.8572 55.4343 40.0725 55.3942V55.3971ZM37.9874 53.1436C37.8793 53.1223 37.7685 53.1189 37.6593 53.1335C37.6035 53.1401 37.5483 53.1501 37.4938 53.1637L37.2844 53.2096C36.9949 53.2718 36.6988 53.2964 36.4031 53.2829C36.0969 53.2739 35.7977 53.187 35.5332 53.0301L36.3664 52.829C36.6323 52.7629 36.8982 52.6954 37.1741 52.6409L37.3848 52.6021C37.4705 52.5893 37.5571 52.5831 37.6437 52.5834C37.821 52.5887 37.9948 52.6354 38.1515 52.7199C38.2949 52.7991 38.4183 52.9108 38.5123 53.0463C38.6062 53.1818 38.6682 53.3374 38.6933 53.5012C38.4875 53.3289 38.2463 53.2057 37.9874 53.1407V53.1436ZM40.6355 53.9062C40.4999 53.8605 40.3675 53.8053 40.2394 53.741C40.2041 53.7224 40.1701 53.7066 40.1347 53.685C40.0994 53.6635 40.0626 53.6362 40.0258 53.6118C39.989 53.5874 39.9523 53.5486 39.9155 53.5155C39.8787 53.4825 39.8476 53.4337 39.815 53.392C39.716 53.2345 39.6514 53.0572 39.6255 52.8721C39.6029 52.7112 39.5986 52.569 39.5915 52.4412C39.6047 52.2407 39.5743 52.0396 39.5024 51.8523C39.4883 51.8265 39.4707 51.8028 39.4501 51.782C39.4176 51.7662 39.3992 51.7374 39.3539 51.7202C39.2512 51.6737 39.1447 51.6362 39.0356 51.6082C38.7653 51.5508 38.5003 51.4701 38.2435 51.3669C38.1093 51.3079 37.9836 51.2306 37.87 51.1371C37.7601 51.0441 37.6713 50.9279 37.6098 50.7967C37.7202 50.8687 37.8403 50.9243 37.9662 50.9619C38.0868 50.9935 38.2099 51.0146 38.334 51.0251C38.583 51.0437 38.8362 51.0351 39.1134 51.0452C39.2667 51.0496 39.419 51.0712 39.5675 51.1098C39.6587 51.1375 39.7461 51.1766 39.8278 51.2261C39.9141 51.2851 39.9909 51.3573 40.0555 51.4401C40.1661 51.5928 40.2393 51.7701 40.2691 51.9572C40.2928 52.1054 40.3066 52.2552 40.3101 52.4053C40.2994 52.612 40.3263 52.8189 40.3894 53.0157C40.3974 53.0273 40.404 53.0399 40.4092 53.0531C40.422 53.0655 40.4339 53.0789 40.4445 53.0933C40.4634 53.1074 40.4814 53.1227 40.4983 53.1392C40.5167 53.155 40.5407 53.1708 40.5619 53.1881C40.6553 53.2527 40.7628 53.3188 40.8774 53.3877C41.1203 53.5248 41.3496 53.6854 41.562 53.8674C41.7824 54.0546 41.9421 54.3049 42.0203 54.5856C41.6158 54.1935 41.1419 54.0858 40.6355 53.9062ZM39.7061 50.0699C39.6508 50.0411 39.5891 50.0276 39.527 50.0306C39.465 50.0336 39.4048 50.0531 39.3525 50.0872C39.1586 50.202 38.9351 50.2551 38.7112 50.2395C38.4872 50.2239 38.273 50.1403 38.0964 49.9996C39.3581 48.9597 39.1884 48.4714 39.1177 48.276L39.0512 48.0864C39.0003 47.9428 38.9324 47.7432 38.8588 47.5349L38.7867 47.3338L38.5773 47.3439C38.5011 47.3495 38.4249 47.3325 38.3581 47.2951C38.6056 46.8829 38.5207 46.6444 38.4769 46.5195C38.4528 46.4534 38.4302 46.3758 38.4047 46.3055C38.3453 46.1274 38.2788 45.9292 38.1926 45.7209C39.4586 44.6581 39.4954 44.0347 39.3497 43.624C39.0807 42.8783 38.77 42.1489 38.4189 41.4394C38.2293 41.043 38.0341 40.6322 37.8205 40.1367C38.0827 39.0629 38.2498 37.9674 38.3199 36.8634C38.4569 36.9118 38.5995 36.9417 38.7442 36.9525C39.518 38.1273 39.8221 38.8814 40.1588 40.4096C40.4417 41.7022 40.3964 42.7162 40.3285 44.1252C40.313 44.4642 40.296 44.8232 40.2818 45.2125C40.2253 46.8024 40.975 47.4645 41.7686 48.1654C41.8591 48.2444 41.951 48.3249 42.043 48.4096C42.0741 48.4369 42.7007 49.0186 42.7644 49.8128C42.009 49.7899 41.4658 50.1116 41.0867 50.7895L39.7061 50.0699ZM42.2651 36.8936L42.2283 36.9094C42.0996 36.9649 41.9678 37.0129 41.8336 37.053C41.5738 37.1331 41.3055 37.1813 41.0344 37.1966C41.27 37.0832 41.4913 36.9414 41.6936 36.7744C41.794 36.6925 41.8916 36.6078 41.9765 36.5202L42.0133 36.4814C42.1024 36.6121 42.1858 36.75 42.2651 36.8922V36.8936ZM43.0996 38.9489C43.1463 39.1184 43.1859 39.2835 43.2185 39.4473C42.7729 39.4085 42.3315 39.374 41.8831 39.364C42.2806 39.2074 42.6894 39.0767 43.0968 38.9331L43.0996 38.9489ZM43.3656 41.1967C43.2128 41.178 43.0572 41.1665 42.9016 41.1622C42.6177 41.1525 42.3336 41.1698 42.0529 41.2139C42.3095 41.0686 42.579 40.9479 42.8578 40.8534C43.0233 40.7974 43.1916 40.7471 43.3642 40.7098C43.367 40.8663 43.367 41.0286 43.3656 41.1952V41.1967ZM45.6147 47.5076C45.3507 47.4773 45.0833 47.5007 44.8282 47.5766C44.5268 47.6608 44.2469 47.8102 44.0078 48.0146C44.1844 47.7281 44.4192 47.4833 44.6967 47.2965C44.8468 47.1954 45.0059 47.1089 45.172 47.038C45.3282 47.1854 45.476 47.3417 45.6147 47.5062V47.5076ZM46.1664 48.5331C45.891 48.4518 45.6041 48.4183 45.3177 48.434C44.9569 48.4519 44.6044 48.5499 44.285 48.7213C44.5634 48.4562 44.8956 48.2562 45.2583 48.1353C45.4793 48.0625 45.7074 48.0143 45.9387 47.9917C46.0345 48.1623 46.1109 48.3435 46.1664 48.5317V48.5331ZM46.2583 49.596C46.0011 49.3632 45.6877 49.2036 45.3501 49.1335C45.0125 49.0634 44.6626 49.0852 44.336 49.1967C44.7295 48.9419 45.1986 48.8357 45.6614 48.8965C45.8656 48.9185 46.0662 48.9668 46.2583 49.0401C46.274 49.2255 46.274 49.412 46.2583 49.5974V49.596ZM43.2878 43.0049C43.1297 42.9538 42.9686 42.913 42.8054 42.8828C42.5423 42.83 42.2729 42.8178 42.0062 42.8469C42.2554 42.711 42.5234 42.6141 42.8012 42.5597C42.9713 42.526 43.1432 42.5025 43.3161 42.4893C43.3161 42.5051 43.3161 42.5195 43.3161 42.5353C43.3019 42.6947 43.2934 42.8469 43.2864 43.0035L43.2878 43.0049ZM42.7304 43.4358C42.9084 43.3833 43.0893 43.3421 43.2722 43.3123C43.2722 43.4559 43.2595 43.5909 43.2552 43.7432C43.2552 43.7733 43.2552 43.7992 43.2552 43.8293C43.0939 43.7931 42.9304 43.7672 42.7658 43.7518C42.4979 43.7242 42.2275 43.7382 41.9638 43.7934C42.2001 43.638 42.4581 43.5194 42.729 43.4415L42.7304 43.4358ZM42.6583 44.3306C42.8521 44.2373 43.0526 44.159 43.2581 44.0965C43.2658 44.2731 43.2871 44.4489 43.3217 44.6222C43.1285 44.61 42.9346 44.6129 42.7418 44.6308C42.4559 44.6528 42.175 44.7187 41.9086 44.8261C42.1322 44.6254 42.3845 44.4602 42.6569 44.3363L42.6583 44.3306ZM42.1759 46.3615C42.2116 46.4204 42.2242 46.4908 42.2114 46.5587C42.1985 46.6266 42.1612 46.6872 42.1066 46.7286C42.052 46.7699 41.9842 46.7891 41.9164 46.7823C41.8486 46.7755 41.7858 46.7432 41.7403 46.6918C41.7046 46.6329 41.692 46.5625 41.7048 46.4946C41.7177 46.4267 41.755 46.3661 41.8096 46.3247C41.8642 46.2834 41.932 46.2642 41.9998 46.271C42.0676 46.2778 42.1304 46.3101 42.1759 46.3615ZM41.5917 45.6433C41.5445 45.6455 41.4978 45.6338 41.457 45.6096C41.4162 45.5853 41.3832 45.5497 41.362 45.5068C41.3408 45.464 41.3322 45.4158 41.3374 45.3681C41.3425 45.3205 41.3611 45.2753 41.3909 45.2382C41.4208 45.201 41.4606 45.1734 41.5055 45.1586C41.5505 45.1439 41.5986 45.1427 41.6443 45.1552C41.6899 45.1677 41.7309 45.1933 41.7625 45.2289C41.7941 45.2646 41.8149 45.3087 41.8223 45.3561C41.826 45.3905 41.8229 45.4253 41.8132 45.4585C41.8035 45.4916 41.7874 45.5225 41.7658 45.5492C41.7442 45.576 41.7175 45.5981 41.6874 45.6143C41.6573 45.6304 41.6243 45.6403 41.5903 45.6433H41.5917ZM41.5153 44.0635C41.5545 44.0613 41.5935 44.0709 41.6274 44.0908C41.6614 44.1108 41.6889 44.1404 41.7066 44.1759C41.7243 44.2115 41.7314 44.2515 41.7271 44.2911C41.7228 44.3307 41.7072 44.3682 41.6823 44.399C41.6574 44.4298 41.6242 44.4525 41.5867 44.4645C41.5493 44.4764 41.5093 44.4771 41.4715 44.4663C41.4337 44.4556 41.3998 44.4339 41.3739 44.4039C41.3481 44.374 41.3313 44.337 41.3258 44.2976C41.3218 44.242 41.3392 44.187 41.3742 44.1442C41.4093 44.1013 41.4594 44.0739 41.5139 44.0678L41.5153 44.0635ZM41.5988 43.443C41.5478 43.4531 41.4949 43.4424 41.4517 43.413C41.4085 43.3837 41.3785 43.3382 41.3682 43.2864C41.3663 43.2349 41.3832 43.1844 41.4156 43.1447C41.448 43.105 41.4938 43.0788 41.544 43.0711C41.5943 43.0635 41.6455 43.0749 41.688 43.1033C41.7305 43.1316 41.7612 43.1748 41.7742 43.2247C41.7771 43.2511 41.7749 43.2779 41.7676 43.3034C41.7603 43.3289 41.748 43.3528 41.7316 43.3735C41.7151 43.3942 41.6948 43.4114 41.6718 43.424C41.6487 43.4367 41.6234 43.4446 41.5974 43.4473L41.5988 43.443ZM41.5988 42.5051C41.5649 42.507 41.5311 42.4988 41.5017 42.4815C41.4722 42.4642 41.4484 42.4387 41.433 42.4079C41.4176 42.3771 41.4113 42.3424 41.415 42.3081C41.4186 42.2738 41.432 42.2413 41.4535 42.2146C41.475 42.1879 41.5037 42.168 41.5361 42.1576C41.5685 42.1471 41.6032 42.1464 41.636 42.1556C41.6688 42.1647 41.6982 42.1834 41.7207 42.2092C41.7433 42.2351 41.7579 42.267 41.7629 42.3011C41.7656 42.3258 41.7636 42.3507 41.7568 42.3745C41.75 42.3983 41.7387 42.4205 41.7235 42.4399C41.7082 42.4592 41.6894 42.4753 41.668 42.4873C41.6466 42.4992 41.6231 42.5067 41.5988 42.5094V42.5051ZM41.5366 41.6347C41.5026 41.6366 41.4689 41.6284 41.4394 41.6111C41.41 41.5939 41.3861 41.5683 41.3707 41.5375C41.3553 41.5067 41.3491 41.4721 41.3527 41.4378C41.3564 41.4034 41.3698 41.3709 41.3913 41.3442C41.4128 41.3175 41.4415 41.2977 41.4739 41.2872C41.5063 41.2767 41.541 41.276 41.5737 41.2852C41.6065 41.2944 41.636 41.313 41.6585 41.3388C41.681 41.3647 41.6957 41.3966 41.7006 41.4308C41.7036 41.4554 41.7017 41.4804 41.695 41.5043C41.6883 41.5282 41.677 41.5505 41.6617 41.5699C41.6464 41.5893 41.6275 41.6054 41.606 41.6173C41.5845 41.6291 41.5609 41.6365 41.5366 41.639V41.6347ZM41.4206 40.8462C41.3866 40.8481 41.3529 40.8399 41.3234 40.8226C41.294 40.8053 41.2701 40.7798 41.2547 40.749C41.2394 40.7182 41.2331 40.6836 41.2368 40.6492C41.2404 40.6149 41.2538 40.5824 41.2753 40.5557C41.2968 40.529 41.3255 40.5092 41.3579 40.4987C41.3903 40.4882 41.425 40.4875 41.4577 40.4967C41.4905 40.5058 41.52 40.5245 41.5425 40.5503C41.565 40.5762 41.5797 40.6081 41.5847 40.6423C41.5876 40.6669 41.5857 40.6919 41.579 40.7158C41.5723 40.7397 41.561 40.762 41.5457 40.7814C41.5304 40.8008 41.5115 40.8169 41.49 40.8288C41.4685 40.8406 41.4449 40.848 41.4206 40.8505V40.8462ZM41.2706 40.0634C41.2331 40.0655 41.1958 40.0565 41.1633 40.0375C41.1307 40.0184 41.1043 39.9902 41.0873 39.9562C41.0703 39.9222 41.0633 39.8839 41.0673 39.846C41.0713 39.8081 41.0861 39.7722 41.1098 39.7426C41.1335 39.7131 41.1652 39.6912 41.201 39.6795C41.2368 39.6679 41.2751 39.6671 41.3113 39.6772C41.3475 39.6873 41.3801 39.7079 41.405 39.7364C41.4299 39.765 41.4461 39.8002 41.4517 39.8379C41.4548 39.8651 41.4526 39.8927 41.4452 39.919C41.4378 39.9453 41.4253 39.9699 41.4084 39.9913C41.3916 40.0126 41.3707 40.0304 41.3471 40.0435C41.3234 40.0567 41.2974 40.0649 41.2706 40.0677V40.0634ZM41.1292 39.2922C41.0923 39.3008 41.0538 39.2983 41.0183 39.2851C40.9827 39.2719 40.9518 39.2485 40.9291 39.2178C40.9064 39.187 40.8931 39.1503 40.8906 39.112C40.8881 39.0736 40.8967 39.0354 40.9152 39.0019C40.9337 38.9684 40.9614 38.9411 40.9949 38.9234C41.0285 38.9056 41.0663 38.898 41.104 38.9017C41.1416 38.9054 41.1774 38.9201 41.207 38.944C41.2366 38.9679 41.2587 39.0001 41.2706 39.0365C41.2785 39.0627 41.2811 39.0903 41.2785 39.1175C41.2758 39.1448 41.2679 39.1712 41.2551 39.1954C41.2424 39.2195 41.2251 39.2409 41.2042 39.2582C41.1833 39.2756 41.1593 39.2886 41.1334 39.2965L41.1292 39.2922ZM40.8887 38.574C40.847 38.5839 40.8033 38.5812 40.763 38.5663C40.7228 38.5514 40.6877 38.5249 40.662 38.4901C40.6363 38.4553 40.6211 38.4136 40.6184 38.3702C40.6156 38.3268 40.6254 38.2835 40.6465 38.2456C40.6676 38.2077 40.6991 38.1769 40.7371 38.1569C40.7752 38.1369 40.8181 38.1285 40.8608 38.1329C40.9034 38.1373 40.9438 38.1541 40.9772 38.1815C41.0105 38.2088 41.0353 38.2454 41.0485 38.2868C41.0648 38.346 41.0577 38.4093 41.0286 38.4633C40.9996 38.5172 40.9509 38.5575 40.8929 38.5755L40.8887 38.574ZM40.6213 37.9176C40.5834 37.9314 40.5422 37.9337 40.503 37.9242C40.4638 37.9147 40.4281 37.8938 40.4004 37.864C40.3726 37.8343 40.354 37.797 40.3468 37.7567C40.3395 37.7164 40.344 37.6748 40.3596 37.6371C40.3753 37.5993 40.4014 37.567 40.4348 37.544C40.4682 37.5211 40.5074 37.5084 40.5478 37.5077C40.5881 37.507 40.6278 37.5182 40.6619 37.54C40.6961 37.5618 40.7233 37.5932 40.7402 37.6304C40.7624 37.6841 40.7628 37.7446 40.7414 37.7987C40.7199 37.8527 40.6783 37.896 40.6256 37.9191L40.6213 37.9176ZM40.2168 37.2771C40.1841 37.2853 40.1498 37.2838 40.118 37.2727C40.0862 37.2615 40.0582 37.2412 40.0375 37.2143C40.0168 37.1873 40.0043 37.1548 40.0014 37.1208C39.9985 37.0867 40.0054 37.0526 40.0213 37.0224C40.0371 36.9923 40.0612 36.9674 40.0907 36.9509C40.1202 36.9344 40.1538 36.927 40.1873 36.9295C40.2209 36.9319 40.2531 36.9442 40.2799 36.9649C40.3067 36.9856 40.327 37.0137 40.3384 37.0458C40.3459 37.0689 40.3488 37.0933 40.3469 37.1175C40.3451 37.1418 40.3385 37.1654 40.3276 37.1871C40.3166 37.2087 40.3016 37.2279 40.2833 37.2436C40.265 37.2593 40.2439 37.2712 40.221 37.2785L40.2168 37.2771ZM42.5777 47.1873C42.626 47.1476 42.6877 47.1287 42.7495 47.1346C42.8114 47.1405 42.8685 47.1708 42.9087 47.2189C42.942 47.2563 42.9634 47.303 42.9701 47.3529C42.9768 47.4028 42.9685 47.4536 42.9462 47.4986C42.924 47.5436 42.8889 47.5808 42.8455 47.6052C42.8022 47.6296 42.7525 47.6402 42.7031 47.6354C42.6538 47.6307 42.6069 47.611 42.5688 47.5788C42.5307 47.5466 42.503 47.5034 42.4894 47.455C42.4759 47.4065 42.477 47.3551 42.4928 47.3073C42.5085 47.2595 42.5381 47.2177 42.5777 47.1873ZM44.22 49.7999C44.6605 49.643 45.1414 49.6491 45.5779 49.8172C45.79 49.8909 45.9902 49.9959 46.1721 50.1288C46.1322 50.3103 46.0803 50.4888 46.0165 50.6631C45.8712 50.4348 45.678 50.2421 45.4506 50.0987C45.0889 49.8564 44.6546 49.7516 44.2242 49.8028L44.22 49.7999ZM44.0191 49.5543C44.027 49.5869 44.025 49.6212 44.0134 49.6527C44.0017 49.6841 43.981 49.7113 43.9539 49.7305C43.9268 49.7498 43.8946 49.7603 43.8615 49.7607C43.8284 49.761 43.796 49.7512 43.7685 49.7326C43.741 49.7139 43.7197 49.6872 43.7074 49.656C43.6951 49.6248 43.6924 49.5906 43.6996 49.5578C43.7068 49.525 43.7236 49.4952 43.7478 49.4723C43.772 49.4493 43.8025 49.4344 43.8352 49.4294C43.8559 49.425 43.8771 49.4248 43.8978 49.4289C43.9185 49.433 43.9382 49.4412 43.9557 49.4531C43.9733 49.465 43.9883 49.4804 43.9999 49.4982C44.0115 49.5161 44.0195 49.5361 44.0233 49.5572L44.0191 49.5543ZM43.8055 49.247C43.7659 49.2591 43.7232 49.2549 43.6867 49.2353C43.6501 49.2156 43.6227 49.1822 43.6103 49.1421C43.6062 49.1218 43.6061 49.1009 43.61 49.0806C43.6139 49.0602 43.6217 49.0409 43.633 49.0237C43.6443 49.0064 43.6589 48.9917 43.6759 48.9802C43.6929 48.9687 43.7119 48.9608 43.732 48.9568C43.7695 48.9469 43.8093 48.9526 43.8427 48.9725C43.8762 48.9924 43.9004 49.025 43.9102 49.0631C43.9199 49.1012 43.9144 49.1417 43.8948 49.1756C43.8751 49.2095 43.843 49.2342 43.8055 49.2441V49.247ZM43.6867 48.7615C43.6681 48.7738 43.6474 48.7823 43.6256 48.7864C43.6038 48.7905 43.5814 48.7903 43.5597 48.7856C43.538 48.7809 43.5174 48.772 43.4992 48.7592C43.4809 48.7464 43.4653 48.7301 43.4533 48.7112C43.4325 48.6818 43.421 48.6467 43.4203 48.6105C43.4195 48.5743 43.4296 48.5387 43.4491 48.5084C43.4686 48.4782 43.4967 48.4546 43.5296 48.4408C43.5626 48.427 43.5989 48.4236 43.6338 48.4311C43.6686 48.4386 43.7005 48.4566 43.725 48.4828C43.7496 48.509 43.7659 48.5422 43.7716 48.5779C43.7773 48.6136 43.7723 48.6503 43.7571 48.683C43.742 48.7158 43.7174 48.7431 43.6867 48.7615ZM43.3967 48.1942C43.3626 48.2148 43.3234 48.225 43.2837 48.2235C43.2441 48.222 43.2057 48.2088 43.1733 48.1855C43.1408 48.1623 43.1157 48.13 43.101 48.0926C43.0863 48.0552 43.0826 48.0142 43.0904 47.9747C43.0981 47.9352 43.117 47.8988 43.1447 47.87C43.1724 47.8411 43.2078 47.8211 43.2465 47.8122C43.2852 47.8034 43.3256 47.8061 43.3628 47.8201C43.4 47.8341 43.4324 47.8588 43.4561 47.8911C43.4725 47.9148 43.484 47.9416 43.4901 47.9698C43.4962 47.9981 43.4967 48.0273 43.4916 48.0558C43.4865 48.0843 43.4758 48.1114 43.4602 48.1357C43.4447 48.1599 43.4245 48.1808 43.4009 48.197L43.3967 48.1942ZM42.6824 46.7708C42.84 46.498 43.0375 46.2511 43.268 46.0383C43.4197 45.8947 43.5814 45.7622 43.7518 45.6419C43.8606 45.7946 43.9807 45.9386 44.1111 46.0728C43.88 46.1272 43.6546 46.2037 43.4377 46.3012C43.1653 46.4193 42.9121 46.5786 42.6866 46.7737L42.6824 46.7708ZM43.6061 45.4092C43.3682 45.4141 43.1314 45.442 42.8988 45.4925C42.6066 45.5501 42.3248 45.6522 42.0628 45.7956C42.2723 45.5625 42.515 45.3625 42.7828 45.2024C42.9766 45.0841 43.179 44.9809 43.3882 44.8936C43.4428 45.0744 43.5173 45.2483 43.6103 45.4121L43.6061 45.4092ZM42.821 41.6563C42.9964 41.6318 43.1718 41.616 43.3514 41.6074C43.3514 41.7712 43.3387 41.9392 43.3288 42.113C43.1619 42.057 42.9865 42.0081 42.8111 41.9694C42.5321 41.9062 42.248 41.8691 41.9623 41.8588C42.2433 41.7653 42.5321 41.6985 42.8252 41.6591L42.821 41.6563ZM42.9737 38.5396C42.804 38.5611 42.6413 38.5755 42.4772 38.5927C42.2155 38.6185 41.9567 38.6473 41.6978 38.6947C41.9199 38.551 42.1547 38.4203 42.3881 38.294C42.5296 38.2178 42.671 38.1417 42.8125 38.0627C42.8705 38.2178 42.9257 38.3773 42.978 38.5381L42.9737 38.5396ZM42.6512 37.6778C42.2256 37.7785 41.7896 37.8267 41.3527 37.8214C41.7361 37.6683 42.1003 37.4697 42.4376 37.2297C42.5168 37.3676 42.5876 37.5184 42.6555 37.6764L42.6512 37.6778ZM41.4404 36.3263C41.1876 36.4251 40.924 36.4926 40.6553 36.5273C40.8822 36.3978 41.0927 36.2406 41.2819 36.0591C41.3739 35.9729 41.4602 35.8839 41.5394 35.7934C41.6328 35.9169 41.7219 36.0419 41.8082 36.1668C41.6893 36.2272 41.5663 36.2789 41.4404 36.3263ZM44.6939 46.6028L44.7999 46.6961C44.5799 46.7506 44.365 46.8246 44.1577 46.9173C43.8837 47.0347 43.6289 47.1941 43.4024 47.3899C43.5596 47.1176 43.7566 46.8711 43.9866 46.6588C44.1123 46.5408 44.244 46.4296 44.3812 46.3256C44.4817 46.4189 44.5863 46.5109 44.6939 46.6028ZM43.3429 40.3449C43.1675 40.3119 42.9879 40.2832 42.8054 40.2674C42.5391 40.2423 42.2711 40.2423 42.0048 40.2674C42.2503 40.1394 42.507 40.0345 42.7715 39.9543C42.9398 39.9026 43.111 39.8595 43.2864 39.8221C43.3104 40.0002 43.3288 40.1726 43.3415 40.3449H43.3429ZM40.5294 35.4142C39.9155 35.8781 39.484 36.1065 39.1445 36.1869C40.7076 35.137 40.9594 34.4907 40.934 34.1158L41.6327 33.606C41.777 33.965 41.7233 34.5166 40.528 35.4142H40.5294ZM41.7799 32.4268L40.9693 33.0185L40.3964 33.4365L38.4415 34.8613L40.2239 33.1377L37.3764 28.0964L40.7076 32.6681L41.1221 32.2659L37.0354 25.7381L36.0382 26.4864L36.7384 25.4566L34.792 24.4282L36.9279 25.1808L37.2462 25.2914L37.3721 25.4896L41.7799 32.4268ZM5.43851 24.6709C5.60825 24.8146 5.97745 25.1205 6.48811 25.5327C6.26713 25.7218 6.06699 25.9346 5.89116 26.1675C6.23349 26.439 6.59844 26.7291 6.97754 27.0293C7.15492 26.8049 7.34379 26.5901 7.54337 26.3858L8.21669 26.9331C8.01535 27.1341 7.82639 27.3476 7.65087 27.5722L8.15728 27.9858C8.33064 27.7592 8.51673 27.5429 8.71462 27.3381L9.16162 27.7043C8.95993 27.9076 8.77095 28.1234 8.5958 28.3507C11.5352 30.7722 14.9613 33.7266 17.2798 35.8896C17.185 36.0448 17.0959 36.2056 17.0124 36.3693C14.3799 33.6333 4.96463 26.133 4.12297 25.4681C4.20378 25.2981 4.30968 25.1417 4.437 25.0041C4.49924 24.9323 5.05658 24.342 5.43709 24.6738L5.43851 24.6709ZM28.0389 39.2835C28.0389 40.3738 27.7205 41.4396 27.1239 42.3461C26.5274 43.2526 25.6794 43.9591 24.6874 44.3763C23.6954 44.7936 22.6038 44.9027 21.5506 44.69C20.4975 44.4773 19.5301 43.9523 18.7709 43.1814C18.0116 42.4105 17.4945 41.4283 17.2851 40.359C17.0756 39.2897 17.1831 38.1813 17.594 37.174C18.0049 36.1668 18.7008 35.3059 19.5936 34.7001C20.4864 34.0944 21.536 33.7711 22.6098 33.7711C24.0491 33.773 25.4289 34.3544 26.4467 35.3878C27.4644 36.4211 28.037 37.8221 28.0389 39.2835ZM7.19963 52.3392C7.03733 52.2725 6.90286 52.1507 6.81911 51.9945L6.93511 51.9816C7.10768 51.9629 11.1986 51.5019 14.8114 49.2268L14.8835 49.1823L14.933 49.1134C15.0207 48.9899 16.9558 46.2739 18.045 43.6556C18.1865 43.8121 18.3449 43.9615 18.5062 44.1037C17.5895 46.4907 15.7435 49.178 15.4097 49.6534C11.7503 51.7949 8.52648 52.3522 7.19963 52.3392ZM4.86986 28.5661C4.81469 28.8605 4.63645 29.0731 4.47095 29.0415C4.30545 29.0099 4.21492 28.7456 4.27008 28.4512C4.32525 28.1568 4.5049 27.9442 4.6704 27.9758C4.83591 28.0074 4.92502 28.2717 4.86986 28.5661ZM10.4036 36.1941C10.3074 36.1469 10.2087 36.1052 10.108 36.0692C10.0853 36.0692 10.0641 36.0548 10.0415 36.0505H10.0259L10.0005 36.0419L9.92265 36.0132C9.87662 35.9887 9.83424 35.9578 9.79675 35.9212C9.76529 35.8889 9.73732 35.8533 9.71329 35.8149C9.63987 35.6876 9.59496 35.5454 9.58174 35.3984C9.56687 35.2691 9.56687 35.1385 9.58174 35.0092C9.6075 34.7561 9.69342 34.5131 9.83212 34.3011C9.86041 34.5525 9.88446 34.7823 9.91699 35.0063C9.93538 35.1184 9.95377 35.2261 9.97782 35.3281C9.99699 35.4168 10.0284 35.5024 10.0712 35.5823C10.0797 35.5981 10.0896 35.6038 10.0952 35.6167C10.1009 35.6297 10.108 35.6297 10.1108 35.6297H10.1263L10.1518 35.6397C10.1865 35.6498 10.2201 35.6633 10.2522 35.6799C10.3682 35.737 10.4762 35.8094 10.5733 35.8954C10.7448 36.0544 10.9348 36.1914 11.1392 36.3033C10.8889 36.3535 10.6292 36.315 10.4036 36.1941ZM10.8181 39.4114C10.7106 39.3927 10.6112 39.3416 10.5327 39.2647C10.4543 39.1879 10.4004 39.0888 10.3781 38.9805C10.3506 38.8741 10.3506 38.7623 10.3781 38.6559C10.3903 38.6014 10.4135 38.5501 10.4461 38.5051C10.4787 38.4602 10.5201 38.4225 10.5677 38.3945C10.5722 38.4877 10.5841 38.5804 10.6031 38.6717C10.6172 38.755 10.6356 38.8326 10.654 38.9087C10.6724 38.9848 10.695 39.0609 10.7219 39.1399L10.8181 39.4114ZM10.0287 37.4351C10.0487 37.3363 10.0897 37.2431 10.149 37.1622C10.2078 37.0771 10.2921 37.0136 10.3895 36.9812C10.3796 37.0889 10.3654 37.1737 10.3527 37.257C10.3399 37.3403 10.3258 37.415 10.3088 37.4939C10.2918 37.5729 10.2749 37.6491 10.2551 37.7295C10.2353 37.8099 10.2112 37.8947 10.1744 37.9966C10.1014 37.9251 10.0519 37.8322 10.033 37.7309C10.0104 37.6338 10.0089 37.5328 10.0287 37.4351ZM10.2636 41.4566C10.3699 41.7427 10.5065 42.0163 10.6709 42.2724C10.8422 42.5128 11.0314 42.7394 11.2368 42.9503C11.4652 43.1839 11.6561 43.4524 11.8026 43.746C11.9466 44.0446 12.0202 44.373 12.0176 44.7055C11.8658 44.4366 11.6991 44.1767 11.5183 43.927C11.3341 43.6906 11.1381 43.4638 10.9312 43.2476C10.7004 43.0136 10.513 42.7392 10.3781 42.4376C10.2504 42.1289 10.2107 41.79 10.2636 41.4595V41.4566ZM12.2156 40.187C12.2671 40.0013 12.3468 39.8249 12.4519 39.6642C12.5582 39.5007 12.6923 39.3577 12.848 39.2419C13.005 39.1197 13.1928 39.0451 13.3897 39.0264L12.8083 39.9054C12.715 40.0491 12.6202 40.1927 12.5254 40.3363C12.4197 40.487 12.3049 40.6309 12.1817 40.7672C12.1513 40.5745 12.1629 40.3775 12.2156 40.1898V40.187ZM8.43171 36.9726C8.43046 36.9645 8.43046 36.9563 8.43171 36.9482C8.43171 36.9309 8.43171 36.9008 8.44019 36.8778C8.43911 36.8249 8.43199 36.7724 8.41898 36.7212C8.39493 36.6121 8.37088 36.4957 8.33693 36.3823C8.25844 36.1544 8.16681 35.9314 8.06251 35.7144C7.95883 35.4823 7.87368 35.2422 7.80789 34.9963C7.79123 34.9291 7.77848 34.861 7.7697 34.7923L7.75696 34.6846C7.75411 34.6401 7.75411 34.5955 7.75696 34.551C7.77489 34.3968 7.81691 34.2465 7.88144 34.1058C7.99295 33.8679 8.13107 33.6438 8.29308 33.4379C8.44161 33.2383 8.6057 33.0573 8.75423 32.8893L8.8589 32.7686C8.89144 32.7313 8.92114 32.6925 8.93105 32.6781L8.94378 32.6537C8.95279 32.6345 8.96082 32.6149 8.96782 32.5948L9.02016 32.4512C9.16162 32.0203 9.33561 31.5133 9.71895 31.1586C9.75817 31.6448 9.75485 32.1336 9.70905 32.6192C9.70003 32.6865 9.68727 32.7531 9.67086 32.8189C9.66096 32.8562 9.65388 32.8893 9.63974 32.9295L9.61852 32.9884C9.6085 33.0143 9.59717 33.0397 9.58457 33.0645C9.54537 33.1345 9.50141 33.2017 9.45302 33.2656C9.412 33.3201 9.36956 33.369 9.32995 33.4092C9.16869 33.5988 9.01167 33.764 8.85749 33.9291C8.7106 34.0822 8.57536 34.2465 8.45293 34.4203C8.40502 34.4892 8.36693 34.5647 8.33976 34.6444C8.33976 34.6602 8.33976 34.6731 8.32844 34.6889V34.7593C8.32521 34.8071 8.32521 34.8551 8.32844 34.9029C8.3517 35.1234 8.40207 35.34 8.47839 35.5478C8.55238 35.7723 8.6471 35.9892 8.7613 36.1956C8.82212 36.299 8.89002 36.4024 8.95085 36.5158L9.04421 36.6968C9.06496 36.7292 9.08295 36.7633 9.09796 36.7988C9.10604 36.8189 9.11266 36.8395 9.11777 36.8606C9.12664 36.8884 9.1314 36.9175 9.13191 36.9467C9.13339 37.0096 9.12673 37.0724 9.11211 37.1334C9.10252 37.1748 9.09072 37.2155 9.07675 37.2555C9.05128 37.3288 9.02441 37.392 8.99753 37.4523C8.94378 37.5744 8.88578 37.685 8.82778 37.7956C8.59297 38.2264 8.34259 38.6343 8.09504 39.0408L7.34957 40.2358C7.22792 40.4326 7.1091 40.6308 7.00725 40.8247C6.9832 40.8721 6.95915 40.9195 6.93935 40.9683L6.87994 41.1119C6.84316 41.2081 6.8078 41.3029 6.78092 41.3992C6.71825 41.5708 6.70357 41.7567 6.73848 41.9363C6.79397 42.1199 6.90981 42.2786 7.06666 42.3859C7.2402 42.5143 7.43068 42.6173 7.63248 42.6918C7.73367 42.725 7.83663 42.7523 7.94086 42.7737C8.07211 42.7956 8.20129 42.8287 8.32703 42.8728C8.41884 42.9095 8.50323 42.9631 8.57599 43.0308C8.64064 43.0958 8.69718 43.1686 8.74432 43.2476C8.81162 43.3762 8.86566 43.5114 8.90558 43.6512C8.95142 43.8105 8.96726 43.9772 8.95226 44.1424C8.93505 44.2969 8.89548 44.4479 8.83486 44.5906C8.78485 44.7132 8.72227 44.8302 8.64813 44.9396C8.58307 45.0387 8.50668 45.1234 8.47132 45.1751C8.48369 45.3035 8.53287 45.4253 8.61277 45.5256C8.69305 45.6091 8.78064 45.6851 8.87446 45.7525C8.97544 45.8217 9.08302 45.8804 9.19557 45.9277C9.26269 45.9575 9.32667 45.9941 9.38653 46.0369C9.40812 46.054 9.42801 46.0733 9.44594 46.0943C9.45893 46.1102 9.47075 46.127 9.48131 46.1446C9.49598 46.1729 9.50738 46.2027 9.51526 46.2337C9.52238 46.2691 9.52523 46.3053 9.52375 46.3414V46.3845V46.4132C9.52052 46.4307 9.51627 46.4479 9.51101 46.4649L9.49828 46.5051C9.47234 46.5764 9.44015 46.6451 9.40209 46.7105C9.37097 46.7665 9.33844 46.8125 9.30873 46.8541L9.14464 47.0839C9.13137 47.115 9.12452 47.1485 9.12452 47.1823C9.12452 47.2162 9.13137 47.2496 9.14464 47.2807L9.25074 47.4243L9.47141 47.6972C9.62229 47.8791 9.77742 48.0616 9.9368 48.2444C9.97782 48.2904 10.0132 48.3378 10.0584 48.3881C10.1037 48.4383 10.1532 48.4843 10.1999 48.5389C10.2521 48.596 10.2929 48.6628 10.3201 48.7356C10.3442 48.8106 10.3524 48.8899 10.3442 48.9683C10.3325 49.1042 10.3 49.2375 10.248 49.3633C10.2041 49.4782 10.1617 49.5802 10.1278 49.6865C10.0598 49.9064 10.0404 50.1389 10.0712 50.3672C9.92794 50.1569 9.85686 49.9045 9.8689 49.6491C9.8689 49.3891 9.95518 49.1421 9.93538 48.9712L9.91699 48.8505C9.91411 48.8053 9.90892 48.7602 9.90143 48.7155C9.89363 48.6641 9.8748 48.6151 9.84626 48.5719C9.81304 48.5272 9.77613 48.4853 9.73593 48.4469C9.5687 48.2824 9.39205 48.1279 9.20688 47.9845C9.11494 47.9098 9.02016 47.8408 8.92397 47.7561L8.78252 47.6355L8.71462 47.5723L8.69764 47.5565L8.67218 47.5292C8.65379 47.5087 8.63722 47.4866 8.62267 47.4631C8.56263 47.3683 8.52981 47.2584 8.5279 47.1457C8.52653 47.0529 8.53893 46.9604 8.56468 46.8714C8.60478 46.7325 8.66741 46.6015 8.74998 46.4836C8.78818 46.4319 8.82354 46.383 8.86032 46.3399C8.8971 46.2969 8.91549 46.2782 8.93529 46.2581C8.86808 46.163 8.78809 46.0779 8.69764 46.0053C8.60428 45.9335 8.50385 45.8617 8.402 45.7985C8.29043 45.73 8.18275 45.6552 8.07948 45.5744C8.06534 45.5615 8.05119 45.5514 8.03705 45.5371C8.02012 45.5222 8.0045 45.5059 7.99037 45.4882C7.95188 45.4404 7.92217 45.3859 7.90266 45.3274C7.87261 45.2229 7.86632 45.1129 7.88427 45.0056C7.90971 44.8649 7.951 44.7275 8.00734 44.5963L8.13324 44.3091C8.16528 44.2328 8.18762 44.1527 8.19972 44.0706C8.21244 43.9989 8.21244 43.9255 8.19972 43.8538C8.18295 43.7633 8.15882 43.6744 8.12758 43.588C8.11485 43.555 8.10353 43.532 8.09504 43.5148C8.08656 43.4976 8.08373 43.4875 8.05544 43.4717C7.96444 43.4251 7.86981 43.3862 7.77252 43.3554C7.65133 43.3096 7.53278 43.2568 7.41747 43.1974C7.30148 43.1371 7.19256 43.0767 7.08646 43.0078C6.97606 42.9403 6.8702 42.8655 6.7696 42.7837C6.54623 42.6082 6.36408 42.3845 6.23632 42.1288C6.11033 41.8608 6.0613 41.5621 6.09486 41.267C6.11007 41.1294 6.13898 40.9937 6.18115 40.862C6.20237 40.7988 6.22359 40.7342 6.25188 40.6695C6.28017 40.6049 6.30704 40.5446 6.33534 40.4871C6.4485 40.2573 6.56874 40.0476 6.6918 39.8379C6.93652 39.4214 7.1968 39.0236 7.45142 38.6257C7.70604 38.2279 7.96915 37.8358 8.19689 37.4422C8.25206 37.3431 8.30581 37.2455 8.35108 37.155C8.37289 37.1121 8.39225 37.068 8.40907 37.0229C8.41615 37.0042 8.42322 36.9855 8.42605 36.974C8.42888 36.9625 8.43029 36.9453 8.43171 36.9726ZM2.49057 44.8936C1.17086 41.9627 0.631021 38.7316 0.924895 35.5227C1.21877 32.3138 2.33608 29.2392 4.16541 26.6056L4.68738 27.0235C3.87428 28.251 3.20537 29.5708 2.69427 30.956C3.17522 30.0268 3.80187 29.4695 4.31394 29.6131C4.5629 29.6821 4.75103 29.9104 4.87976 30.2465C4.89532 29.2943 5.33242 28.5316 5.86995 28.5316C6.40748 28.5316 6.86014 29.3216 6.86014 30.2954C6.86014 31.2692 6.41455 32.0591 5.86995 32.0591C5.52338 32.0591 5.21925 31.7431 5.04102 31.2663C5.04124 31.845 4.96124 32.4208 4.80337 32.9769C4.35496 34.6329 3.4072 35.8135 2.68861 35.6124C2.12279 35.4544 1.86675 34.4878 2.00114 33.2756C1.07796 37.2564 1.45735 41.4343 3.08186 45.1766C3.95464 47.1988 5.03536 48.9913 6.41031 50.5166C4.76744 48.9102 3.43931 47.0022 2.49623 44.8936H2.49057ZM8.58448 54.8283C8.33127 54.1102 8.33127 54.1102 8.29167 53.9953C8.26196 53.9062 8.20962 53.7482 8.00875 53.1651C9.71612 52.9927 12.6768 52.2746 15.9091 50.3644L15.9869 50.317L16.0392 50.2437C16.1297 50.1188 18.1341 47.3051 19.205 44.6423C20.2161 45.3073 21.3952 45.661 22.5999 45.6606C22.8362 45.6597 23.0723 45.6458 23.3072 45.6189C23.1926 45.6606 23.078 45.7008 22.962 45.7381C22.6794 45.8258 22.3911 45.8929 22.0991 45.9392C21.8035 45.9909 21.5036 46.034 21.1938 46.0958C21.5986 46.2383 22.0244 46.3097 22.4528 46.3069C22.1897 46.4031 21.9237 46.4893 21.6521 46.5626C21.3282 46.653 21.0015 46.7335 20.662 46.8211C21.0035 46.9013 21.3545 46.9318 21.7045 46.9116C21.7766 46.9116 21.8459 46.903 21.9181 46.8972C21.6823 46.993 21.4466 47.0844 21.2108 47.1715C20.8572 47.2979 20.5035 47.4215 20.1372 47.5464C20.5221 47.5862 20.9105 47.5756 21.2929 47.5148L21.3876 47.4976C21.1797 47.5909 20.9633 47.6814 20.7581 47.7705L19.6053 48.2717C20.0288 48.2606 20.4502 48.2057 20.8628 48.108C21.174 48.0362 21.4824 47.9543 21.7894 47.8681C20.6577 48.4182 19.4978 48.9238 18.3435 49.4566C19.1622 49.2608 19.9701 49.0211 20.7638 48.7385C21.5588 48.4513 22.3439 48.1482 23.1233 47.8207C23.7363 47.5622 24.3426 47.2855 24.9424 46.9906C30.2824 44.648 34.014 42.2509 35.8147 40.602C35.9179 40.1898 36.0283 39.7403 36.1315 39.2548C35.8401 39.6096 35.4922 39.8049 35.1413 39.769C34.3294 39.6843 33.7919 38.4175 33.939 36.9381C34.0861 35.4588 34.8655 34.3284 35.6775 34.4117C36.0721 34.4534 36.4017 34.7751 36.6196 35.2634C36.6719 32.0663 35.8571 28.2257 32.6588 24.2444C32.6107 24.1826 32.5612 24.1251 32.5173 24.0648L32.3759 23.8953C32.2882 23.7919 32.2019 23.6885 32.1128 23.588C32.0463 23.5119 31.9798 23.4343 31.9119 23.3582V23.374C31.6785 23.1226 31.438 22.8785 31.1877 22.6487C30.4997 22.0229 29.7465 21.4753 28.9414 21.0156C28.147 20.5538 27.3116 20.1691 26.4461 19.8666C25.5912 19.5669 24.7095 19.3529 23.8136 19.2275C24.6821 19.4466 25.5277 19.7506 26.3386 20.1352C27.1418 20.5148 27.908 20.9702 28.6273 21.4953C29.8673 22.3967 30.9264 23.5301 31.7478 24.8347C31.4439 24.4263 31.1095 24.0421 30.7477 23.6856C29.7519 22.7034 28.5804 21.9235 27.2962 21.3876C28.4486 22.0968 29.4569 23.023 30.2668 24.1165C30.7003 24.7027 31.06 25.3415 31.3376 26.0181L31.3178 25.9794C30.9297 25.2333 30.4274 24.5546 29.8297 23.9686C29.2465 23.3923 28.5637 22.9302 27.8154 22.6056C28.4911 23.0273 29.0843 23.5722 29.5652 24.2128C30.037 24.8362 30.408 25.5319 30.6643 26.2738C30.9146 27.0015 31.0613 27.7618 31.1 28.5316C31.1217 29.2746 31.0672 30.0178 30.9373 30.7492C30.4419 32.0146 29.7022 33.1666 28.7617 34.1374C28.7617 34.1374 26.3103 33.4379 24.4954 33.1995C23.4352 32.8604 22.3052 32.8132 21.2211 33.0628C20.137 33.3124 19.1376 33.8497 18.3251 34.62C15.6629 31.8911 10.1744 27.4286 7.4981 25.2526L6.44567 24.3909C8.7304 21.5514 11.8243 19.4991 15.303 18.5153C18.7818 17.5316 22.4751 17.6646 25.8765 18.8961C29.2779 20.1275 32.2208 22.3972 34.3017 25.3939C36.3826 28.3905 37.4995 31.9674 37.4994 35.634C37.4876 37.2071 37.291 38.7732 36.9138 40.299C37.1571 40.8735 37.4343 41.3719 37.6437 41.8114C37.983 42.4928 38.2825 43.194 38.5405 43.9112C38.5816 44.0275 38.3991 44.4283 37.5249 45.1363C37.6409 44.8003 37.788 44.1942 37.5659 43.7073C37.208 42.9288 36.4767 41.2656 36.4767 41.2656C36.4767 41.2656 34.9744 42.7363 31.0872 44.8836C29.9768 45.4954 28.541 46.2767 26.9044 47.0624C26.2495 47.3784 25.5747 47.7001 25.2225 47.8739C24.5548 48.2028 23.8843 48.5231 23.1983 48.8132C23.9268 48.661 24.651 48.4757 25.371 48.2818C25.7303 48.186 26.0887 48.0869 26.4461 47.9845C26.1339 48.1453 25.819 48.3043 25.5012 48.4613C24.8307 48.7917 24.1545 49.1105 23.4628 49.4006C24.1969 49.2498 24.9254 49.0645 25.6497 48.8692C26.0109 48.7735 26.3706 48.6724 26.729 48.5662C26.415 48.7299 26.0986 48.8908 25.7798 49.0487C25.1065 49.3805 24.4247 49.6994 23.7287 49.9881C24.4657 49.8444 25.1999 49.6549 25.9298 49.4552C26.2909 49.3595 26.6507 49.257 27.0091 49.1479C26.695 49.3145 26.3782 49.4768 26.0585 49.6347C25.3823 49.9694 24.6949 50.2868 23.9932 50.5755C24.7359 50.4319 25.4757 50.2437 26.2084 50.0426C26.5706 49.9469 26.9317 49.842 27.292 49.7281C26.9761 49.8976 26.6578 50.0623 26.3372 50.2222C25.6582 50.5602 24.9655 50.8738 24.2592 51.1629C25.0061 51.0136 25.7492 50.8355 26.4885 50.6286C26.8572 50.5262 27.226 50.417 27.5947 50.3012L27.8125 50.2322C26.695 50.689 25.5323 51.14 24.3398 51.5751C22.8941 52.1023 21.4683 52.5805 20.0961 53.0114L20.6464 52.7572C21.2745 52.4599 21.8997 52.1568 22.515 51.8365C21.8474 52.0204 21.1783 52.187 20.5064 52.3464L20.0636 52.4484L20.488 52.2401C21.1203 51.9198 21.7512 51.5938 22.3693 51.2491C21.6946 51.4602 21.017 51.6498 20.3366 51.8322L19.8981 51.9471L20.3225 51.7231C20.9618 51.3812 21.5956 51.0322 22.218 50.6617C21.5376 50.9001 20.8501 51.1127 20.1612 51.3195L19.7283 51.4459C19.8698 51.3655 20.0113 51.2879 20.1527 51.206C20.7963 50.8426 21.4385 50.4707 22.061 50.0728C21.3749 50.34 20.6789 50.5784 19.9816 50.8067C19.8401 50.8541 19.6986 50.8987 19.5572 50.9504C19.6986 50.8656 19.8486 50.7823 19.9929 50.6961C20.6422 50.3098 21.29 49.9148 21.9138 49.4911C21.2221 49.787 20.5191 50.0484 19.8118 50.3012C19.1809 50.5267 16.8016 51.4373 15.8001 51.7906C15.0391 52.0462 14.2979 52.2804 13.592 52.4886L14.2201 54.5755C13.8947 54.643 13.575 54.7062 13.2667 54.7637L12.9484 54.8197L12.3514 52.8376C11.6866 53.0143 11.067 53.1622 10.5125 53.2786L11.0543 55.0782C10.9001 55.0926 10.7544 55.1041 10.6172 55.1112L10.0896 53.3619C9.80666 53.415 9.52374 53.4595 9.28327 53.4926C9.42473 53.9953 9.6652 54.7608 9.78544 55.1285C8.9367 55.094 8.62267 54.9317 8.59014 54.8283H8.58448ZM34.9377 30.1244C34.8677 30.1491 34.792 30.1514 34.7207 30.131C34.6495 30.1107 34.586 30.0686 34.539 30.0105C34.492 29.9524 34.4637 29.8811 34.4579 29.8062C34.452 29.7312 34.4689 29.6562 34.5063 29.5914C34.5437 29.5265 34.5998 29.4748 34.6671 29.4433C34.7343 29.4118 34.8094 29.4019 34.8823 29.4151C34.9552 29.4283 35.0224 29.4638 35.0748 29.517C35.1271 29.5701 35.1622 29.6382 35.1753 29.7122C35.1963 29.7977 35.1839 29.8881 35.1406 29.9644C35.0973 30.0407 35.0266 30.0971 34.9433 30.1216L34.9377 30.1244ZM35.6562 32.3464C35.7341 32.793 35.5714 33.1966 35.2913 33.2483C35.0112 33.3 34.7255 32.9783 34.6406 32.5302C34.5557 32.0821 34.7241 31.6799 35.0056 31.6282C35.287 31.5765 35.5827 31.8968 35.6619 32.3435L35.6562 32.3464ZM11.4518 56.3622C11.4221 56.2789 11.3881 56.1899 11.3514 56.0965L11.2863 55.917C11.8875 55.8552 12.5919 55.7547 13.4208 55.6025C16.523 55.0279 20.5049 53.8904 24.634 52.3852C28.7631 50.88 32.5555 49.1895 35.304 47.6268C36.1413 47.1621 36.9496 46.6455 37.7243 46.08C37.7767 46.2236 37.8219 46.3529 37.8658 46.4778C37.8927 46.5568 37.9167 46.6329 37.9422 46.7019C38.027 46.9446 37.4556 47.815 34.676 49.382C33.7409 49.9134 32.6701 50.4592 31.496 51.0035L31.6573 50.9231C32.6376 50.429 33.5995 49.8961 34.5458 49.3432C34.7806 49.1996 35.0126 49.0559 35.2446 48.9051C35.4766 48.7543 35.7043 48.6006 35.9264 48.4383C36.3773 48.1207 36.8064 47.7723 37.2108 47.3956C36.2716 47.9701 35.3267 48.5044 34.3676 49.0229C33.4085 49.5414 32.4367 50.0283 31.455 50.5051L30.9882 50.7234C31.1622 50.6387 31.3362 50.5554 31.5088 50.4692C32.4905 49.9795 33.4538 49.4538 34.4044 48.9022L35.1116 48.4714C35.3408 48.3177 35.5742 48.1726 35.7991 48.0132C36.2533 47.7013 36.6866 47.3592 37.0963 46.9891C36.1485 47.5464 35.1979 48.0692 34.2346 48.5791C33.2713 49.089 32.2953 49.5744 31.3121 50.0412C29.5765 50.8541 27.8168 51.6211 26.026 52.2918C26.2919 52.2918 26.5097 52.4053 26.5677 52.5963C26.6498 52.8635 26.3895 53.1823 25.9878 53.3145C25.586 53.4466 25.1942 53.3274 25.1122 53.0602C25.0941 52.9674 25.1027 52.8713 25.1368 52.7832C25.1709 52.6951 25.2291 52.6188 25.3045 52.5633H25.2932C23.2449 53.3015 21.1754 53.9838 19.0847 54.5741C16.9965 55.1911 14.8699 55.6652 12.7192 55.9931L11.9695 56.0893C12.0098 56.2858 12.0898 56.4716 12.2043 56.6351C11.705 56.5877 11.49 56.47 11.4518 56.3622ZM12.0912 58.1188C12.0813 58.0886 12.0671 58.0542 12.0516 58.0125C12.0148 57.9163 11.9624 57.7798 11.8988 57.5816C11.9881 57.4745 12.0502 57.3468 12.0798 57.2096C12.296 57.2331 12.5132 57.2441 12.7305 57.2427C13.7463 57.2176 14.7579 57.1013 15.7534 56.8951C18.4708 56.3867 21.9633 55.3784 25.586 54.0585C29.2087 52.7385 32.5357 51.2606 34.9504 49.8933C36.6139 48.9568 37.5178 48.2588 38.0002 47.7389C38.1139 47.8213 38.2453 47.8749 38.3835 47.8954L38.5122 48.266L38.5787 48.4584C38.6636 48.6969 38.0893 49.5644 35.3097 51.127C34.4878 51.5909 33.5556 52.0678 32.5428 52.5475C33.4859 52.062 34.4162 51.545 35.3337 50.9963C35.5685 50.8527 35.8005 50.7091 36.0325 50.5568C36.2645 50.4046 36.4894 50.2509 36.7129 50.0872C37.1622 49.7676 37.5899 49.4178 37.9931 49.0401C37.0552 49.6146 36.1132 50.1547 35.1555 50.6775C34.1978 51.2003 33.2275 51.7015 32.2458 52.1827L31.7804 52.4039L32.2995 52.1468C33.2798 51.6541 34.2417 51.1242 35.1894 50.5669L35.8967 50.136C36.1245 49.9823 36.3579 49.8358 36.5814 49.675C37.0344 49.3612 37.4668 49.0176 37.8757 48.6466C36.9294 49.2067 35.9802 49.7338 35.0183 50.248C34.0564 50.7622 33.0832 51.2534 32.1015 51.7202C30.3686 52.5389 28.6118 53.3087 26.8238 53.9895C27.0897 53.9895 27.3075 54.1001 27.367 54.2911C27.449 54.5583 27.1901 54.8786 26.7898 55.0093C26.3895 55.14 25.9948 55.0251 25.9128 54.7579C25.8941 54.6652 25.9022 54.569 25.936 54.4808C25.9699 54.3927 26.0282 54.3163 26.1038 54.261H26.091C24.0456 55.0064 21.9789 55.6972 19.891 56.2962C18.8471 56.5964 17.7975 56.8707 16.7408 57.1163C16.1 57.2599 15.4111 57.3834 14.7293 57.471C14.7293 57.471 14.578 57.494 14.3474 57.5213C14.0376 57.5558 13.7306 57.5831 13.4322 57.6046C13.1233 57.6292 12.8131 57.6292 12.5042 57.6046C12.5042 57.6046 12.623 58.159 12.8975 58.4017C12.3599 58.35 12.1308 58.2294 12.0912 58.1188ZM18.3025 60.4542C18.2727 60.4641 18.2439 60.4766 18.2162 60.4915C18.1888 60.5055 18.1623 60.5213 18.137 60.5389C18.0203 60.6309 17.9106 60.7318 17.8088 60.8405C17.6914 60.9468 17.557 61.0488 17.4297 61.1594C17.3024 61.27 17.1652 61.3777 17.0237 61.4825C16.8843 61.5931 16.7287 61.6808 16.5626 61.7425C16.6665 61.6078 16.7579 61.4635 16.8356 61.3116C16.9162 61.168 16.9968 61.0244 17.0817 60.8807C16.9106 60.8563 16.7493 60.8276 16.5937 60.8018C16.4253 60.7703 16.2541 60.7578 16.083 60.7644C15.9058 60.7717 15.7306 60.8046 15.5625 60.8621C15.6101 60.7699 15.6756 60.6885 15.7551 60.6228C15.8347 60.5572 15.9265 60.5086 16.025 60.48C16.216 60.4206 16.4139 60.3872 16.6135 60.3809C16.8059 60.368 16.9954 60.3809 17.1666 60.3709C17.2515 60.3709 17.3349 60.3608 17.4014 60.3493C17.4286 60.3464 17.4553 60.3397 17.4806 60.3292C17.5867 60.2299 17.7002 60.1392 17.8201 60.0578C17.8657 60.0277 17.9129 60.0004 17.9616 59.9759C18.0054 59.9529 18.0776 59.9242 18.103 59.9127C18.1808 59.884 18.2558 59.8538 18.3336 59.828C18.4864 59.7734 18.642 59.7303 18.7962 59.6843C18.9488 59.6369 19.0985 59.5803 19.2446 59.5149C19.3968 59.4495 19.5334 59.3515 19.6449 59.2276C19.6176 59.4128 19.5346 59.5848 19.4072 59.7202C19.2858 59.858 19.1485 59.9804 18.9984 60.085C18.8549 60.1895 18.7019 60.2799 18.5415 60.3551C18.4623 60.3924 18.3831 60.424 18.3025 60.4542ZM20.8119 64.9066C21.0495 63.456 21.812 61.8904 21.812 61.8904C20.9307 62.6646 20.0028 64.6955 19.6902 65.2757C19.3775 65.856 16.4522 69.168 16.4522 69.168C18.857 64.1626 20.6959 61.8904 20.6959 61.8904C24.0526 58.4578 28.5297 56.3062 28.5297 56.3062C23.7429 59.884 23.2195 61.3332 23.2195 61.3332C28.285 56.8104 32.1934 55.6297 32.1934 55.6297C27.6216 58.6272 26.4786 60.3436 26.4786 60.3436C33.3604 55.7016 35.8359 55.5321 35.8359 55.5321C35.5346 55.6872 35.2531 55.8366 34.9872 55.9816C33.4623 56.6351 30.5667 58.5612 27.0119 61.6621C24.2224 62.5066 20.8119 64.9095 20.8119 64.9095V64.9066ZM47.3815 59.9386L46.4323 55.4502L44.6104 57.5601C44.4449 57.4538 44.2766 57.3547 44.1082 57.2613L46.1381 54.9116L40.9424 51.5134L46.5681 54.4132L46.7591 54.5109L46.8525 54.9647L48.0025 60.6136C47.82 60.4082 47.6121 60.1784 47.3815 59.9386Z" fill="#1E1E1E"/>
<path d="M53.9036 1.00429C52.7231 1.05255 51.5729 1.53732 50.4933 1.97946C49.3049 2.46648 47.9381 3.1611 46.6409 3.2419C45.7948 3.29464 45.778 4.55933 46.6409 4.56943C49.2892 4.60197 51.7726 5.21916 54.2223 6.18759C54.5702 6.32562 54.9786 6.06528 55.1111 5.75219C55.267 5.38075 55.1111 5.04074 54.8025 4.81182C52.7287 3.25275 50.6553 1.69368 48.5823 0.134611C48.0021 -0.303035 47.3479 0.417398 47.4601 0.995315C47.9931 3.63129 48.9851 6.1472 49.5137 8.78317C49.6685 9.55859 50.8378 9.50361 51.0264 8.78317C51.3978 7.36363 51.978 5.99121 52.539 4.639C52.7893 4.03415 53.062 3.43828 53.2943 2.8267C53.4502 2.4171 53.5636 1.97273 53.3313 1.56538V2.11973V2.10851C53.6141 1.46999 52.6715 0.912275 52.3853 1.55528V1.5665L52.7119 1.31513C52.263 1.41613 52.015 1.82684 51.8298 2.21287C51.5246 2.84353 51.2687 3.50224 51.0084 4.15198C50.4473 5.52888 49.8739 6.92598 49.5125 8.37022H51.0252C50.472 5.73873 49.4755 3.22619 48.929 0.593578L47.8069 1.45428C49.8851 3.00512 51.9619 4.55895 54.0371 6.11578L54.6173 4.73887C52.0754 3.74572 49.3699 3.23795 46.6409 3.2419L46.8171 4.54586C47.4635 4.30908 48.1356 4.15198 48.7831 3.91408C49.4306 3.67618 50.0445 3.41359 50.6673 3.14539C51.8108 2.65052 52.9498 2.13544 54.0585 1.57436C54.3311 1.43745 54.2032 0.988582 53.9036 1.00093V1.00429Z" fill="#1E1E1E"/>
<path d="M194.702 67.576C194.163 67.3334 193.597 67.1525 193.015 67.037C192.302 66.912 191.57 66.906 190.849 66.8578C189.342 66.7728 187.845 66.5515 186.379 66.1967C184.964 65.8383 184.429 67.8531 185.78 68.3229C188.188 69.1496 190.446 70.3437 192.854 71.1704C193.69 71.458 194.601 70.55 194.317 69.7339C193.564 67.5685 192.092 65.9317 190.472 64.3401C189.811 63.691 188.747 64.0298 188.478 64.8596C187.635 67.3863 187.041 70.163 187.017 72.8298C187.007 73.9577 188.704 74.4862 189.248 73.4231C189.862 72.2425 190.69 71.1448 191.46 70.0591C191.892 69.4568 192.331 68.8545 192.787 68.2522C192.84 68.176 192.898 68.1026 192.96 68.0323C193.034 67.9435 193.113 67.8546 193.181 67.7703C193.248 67.686 193.323 67.6333 193.377 67.5595C193.392 67.5354 193.431 67.5203 193.443 67.4962C193.374 67.6272 192.83 67.7868 192.71 67.7763L191.868 67.433H191.877L191.57 66.9195C191.533 66.7716 191.529 66.6174 191.558 66.4678C191.511 66.6137 191.489 66.7664 191.494 66.9195C191.449 67.8772 192.768 68.3952 193.428 67.7055C193.777 67.3396 194.004 66.802 193.862 66.2991C193.807 66.1226 193.713 65.9606 193.585 65.8253C193.457 65.69 193.3 65.5848 193.125 65.5178C192.95 65.4509 192.762 65.4238 192.575 65.4386C192.387 65.4534 192.206 65.5098 192.044 65.6034C191.38 65.9859 190.9 66.8081 190.46 67.3969C189.303 68.9298 188.066 70.5229 187.179 72.226L189.411 72.8193C189.432 70.3513 190.006 67.8109 190.791 65.4739L188.797 65.9919C190.112 67.2839 191.397 68.5925 192.041 70.3452L193.504 68.9072C191.087 68.1242 188.814 66.9707 186.397 66.1862L185.799 68.3124C187.385 68.645 188.997 68.8381 190.618 68.8891C191.337 68.9416 192.06 68.9375 192.779 68.8771C193.448 68.7873 194.1 68.6022 194.714 68.3274C194.797 68.3021 194.87 68.2515 194.921 68.183C194.972 68.1144 195 68.0316 195 67.9465C195 67.8614 194.972 67.7785 194.921 67.71C194.87 67.6414 194.797 67.5908 194.714 67.5655L194.702 67.576Z" fill="#1D1D1B"/>
<path d="M78.7042 20.257H65.3886L60.3555 44H55.9594L61.8208 16.2857H79.5325L78.7042 20.257ZM92.0972 44L91.4813 37.3953H82.3069L78.9514 44H74.343L88.8691 16.2857H93.9236L96.7056 44H92.0972ZM84.3032 33.5089H91.1415L90.1858 22.0834L84.3032 33.5089Z" fill="#21BA72"/>
<path d="M117.149 20.257H103.834V44H99.4375V16.2857H117.149V20.257ZM135.575 44L133.579 37.3953H124.405L122.451 44H117.842L126.486 16.2857H131.54L140.184 44H135.575ZM125.573 33.5089H132.411L129.013 22.0834L125.573 33.5089ZM159.587 24.5681C159.587 27.3431 158.744 29.4102 157.06 30.7693C155.375 32.1143 153.025 32.7868 150.009 32.7868H145.231V44H140.834V16.2857H149.966C153.01 16.2857 155.375 16.9865 157.06 18.3881C158.744 19.7756 159.587 21.8356 159.587 24.5681ZM155.191 24.5044C155.191 23.0886 154.723 22.0268 153.789 21.3188C152.869 20.6109 151.609 20.257 150.009 20.257H145.231V28.8155H150.009C151.609 28.8155 152.869 28.4616 153.789 27.7537C154.723 27.0458 155.191 25.9627 155.191 24.5044ZM161.533 16.2857H165.929V35.3778L173.723 16.2857H179.245V44H174.849V23.9098L166.63 44H161.533V16.2857ZM199.943 44H195.547V31.8737H186.627V44H182.231V16.2857H186.627V27.9023H195.547V16.2857H199.943V44Z" fill="#1E1E1E"/>
<path d="M59.7531 54.6686H57.2084V53.9008H63.1644V54.6686H60.6087V61.1402H59.7531V54.6686ZM65.7734 61.2499C65.2615 61.2499 64.7935 61.1255 64.3694 60.8769C63.9453 60.6283 63.6089 60.2919 63.3603 59.8678C63.1117 59.4364 62.9874 58.9684 62.9874 58.4638C62.9874 57.9519 63.1117 57.4839 63.3603 57.0598C63.6089 56.6284 63.9453 56.292 64.3694 56.0507C64.8008 55.8021 65.2725 55.6778 65.7844 55.6778C66.2962 55.6778 66.7642 55.8021 67.1884 56.0507C67.6198 56.2993 67.9598 56.6357 68.2084 57.0598C68.4571 57.4839 68.5814 57.9519 68.5814 58.4638C68.5814 58.9684 68.4571 59.4364 68.2084 59.8678C67.9598 60.2919 67.6198 60.6283 67.1884 60.8769C66.7569 61.1255 66.2853 61.2499 65.7734 61.2499ZM65.7734 60.4711C66.1317 60.4711 66.4571 60.3833 66.7496 60.2078C67.0494 60.0323 67.2834 59.7947 67.4516 59.4949C67.6271 59.1877 67.7149 58.8477 67.7149 58.4748C67.7149 58.0945 67.6308 57.7508 67.4626 57.4437C67.2944 57.1366 67.0604 56.8953 66.7606 56.7198C66.4681 56.5443 66.1427 56.4565 65.7844 56.4565C65.4187 56.4565 65.0897 56.5443 64.7972 56.7198C64.5047 56.8953 64.2743 57.1366 64.1062 57.4437C63.938 57.7508 63.8539 58.0945 63.8539 58.4748C63.8539 58.8477 63.938 59.1877 64.1062 59.4949C64.2743 59.7947 64.5047 60.0323 64.7972 60.2078C65.0897 60.3833 65.4151 60.4711 65.7734 60.4711ZM73.9928 55.7984V61.1402H73.1482V56.5553H71.1629L71.1409 57.2134C71.1117 58.1494 71.0422 58.9026 70.9325 59.4729C70.8228 60.0433 70.6473 60.4711 70.406 60.7563C70.1647 61.0414 69.8357 61.184 69.4189 61.184C69.3165 61.184 69.2214 61.1694 69.1337 61.1402V60.4272C69.2214 60.4418 69.2945 60.4491 69.353 60.4491C69.6967 60.4491 69.9417 60.1822 70.0879 59.6484C70.2342 59.1073 70.3183 58.2883 70.3402 57.1914L70.3731 55.7984H73.9928ZM75.7487 55.7984H76.5933V57.6412H77.8657C78.4726 57.6412 78.9552 57.802 79.3135 58.1238C79.6792 58.4382 79.862 58.8587 79.862 59.3852C79.862 59.9117 79.6792 60.3358 79.3135 60.6575C78.9552 60.9793 78.4726 61.1402 77.8657 61.1402H75.7487V55.7984ZM77.8218 60.3943C78.1947 60.3943 78.4836 60.3029 78.6883 60.1201C78.8931 59.9373 78.9955 59.696 78.9955 59.3961C78.9955 59.0963 78.8894 58.855 78.6774 58.6722C78.4726 58.4821 78.1838 58.387 77.8108 58.387H76.5933V60.3943H77.8218ZM81.2305 55.7984H82.0751V61.1402H81.2305V55.7984ZM85.7277 61.1402H84.6637L82.1848 58.2444L84.4333 55.7984H85.4863L83.2158 58.2225L85.7277 61.1402ZM89.0073 61.2499C88.4954 61.2499 88.0274 61.1255 87.6033 60.8769C87.1792 60.6283 86.8428 60.2919 86.5942 59.8678C86.3456 59.4364 86.2212 58.9684 86.2212 58.4638C86.2212 57.9519 86.3456 57.4839 86.5942 57.0598C86.8428 56.6284 87.1792 56.292 87.6033 56.0507C88.0347 55.8021 88.5064 55.6778 89.0183 55.6778C89.5301 55.6778 89.9981 55.8021 90.4222 56.0507C90.8537 56.2993 91.1937 56.6357 91.4423 57.0598C91.691 57.4839 91.8153 57.9519 91.8153 58.4638C91.8153 58.9684 91.691 59.4364 91.4423 59.8678C91.1937 60.2919 90.8537 60.6283 90.4222 60.8769C89.9908 61.1255 89.5192 61.2499 89.0073 61.2499ZM89.0073 60.4711C89.3656 60.4711 89.691 60.3833 89.9835 60.2078C90.2833 60.0323 90.5173 59.7947 90.6855 59.4949C90.861 59.1877 90.9487 58.8477 90.9487 58.4748C90.9487 58.0945 90.8646 57.7508 90.6965 57.4437C90.5283 57.1366 90.2943 56.8953 89.9945 56.7198C89.702 56.5443 89.3766 56.4565 89.0183 56.4565C88.6526 56.4565 88.3236 56.5443 88.0311 56.7198C87.7386 56.8953 87.5082 57.1366 87.34 57.4437C87.1719 57.7508 87.0878 58.0945 87.0878 58.4748C87.0878 58.8477 87.1719 59.1877 87.34 59.4949C87.5082 59.7947 87.7386 60.0323 88.0311 60.2078C88.3236 60.3833 88.649 60.4711 89.0073 60.4711ZM96.1547 55.7984H100.422V61.1402H99.566V56.5553H96.9993V61.1402H96.1547V55.7984ZM104.564 61.2499C104.052 61.2499 103.584 61.1255 103.16 60.8769C102.735 60.6283 102.399 60.2919 102.15 59.8678C101.902 59.4364 101.777 58.9684 101.777 58.4638C101.777 57.9519 101.902 57.4839 102.15 57.0598C102.399 56.6284 102.735 56.292 103.16 56.0507C103.591 55.8021 104.063 55.6778 104.574 55.6778C105.086 55.6778 105.554 55.8021 105.978 56.0507C106.41 56.2993 106.75 56.6357 106.999 57.0598C107.247 57.4839 107.372 57.9519 107.372 58.4638C107.372 58.9684 107.247 59.4364 106.999 59.8678C106.75 60.2919 106.41 60.6283 105.978 60.8769C105.547 61.1255 105.075 61.2499 104.564 61.2499ZM104.564 60.4711C104.922 60.4711 105.247 60.3833 105.54 60.2078C105.84 60.0323 106.074 59.7947 106.242 59.4949C106.417 59.1877 106.505 58.8477 106.505 58.4748C106.505 58.0945 106.421 57.7508 106.253 57.4437C106.085 57.1366 105.851 56.8953 105.551 56.7198C105.258 56.5443 104.933 56.4565 104.574 56.4565C104.209 56.4565 103.88 56.5443 103.587 56.7198C103.295 56.8953 103.064 57.1366 102.896 57.4437C102.728 57.7508 102.644 58.0945 102.644 58.4748C102.644 58.8477 102.728 59.1877 102.896 59.4949C103.064 59.7947 103.295 60.0323 103.587 60.2078C103.88 60.3833 104.205 60.4711 104.564 60.4711ZM112.783 55.7984V61.1402H111.938V56.5553H109.953L109.931 57.2134C109.902 58.1494 109.832 58.9026 109.723 59.4729C109.613 60.0433 109.437 60.4711 109.196 60.7563C108.955 61.0414 108.626 61.184 108.209 61.184C108.107 61.184 108.012 61.1694 107.924 61.1402V60.4272C108.012 60.4418 108.085 60.4491 108.143 60.4491C108.487 60.4491 108.732 60.1822 108.878 59.6484C109.024 59.1073 109.108 58.2883 109.13 57.1914L109.163 55.7984H112.783ZM116.941 61.2499C116.429 61.2499 115.961 61.1255 115.537 60.8769C115.113 60.6283 114.777 60.2919 114.528 59.8678C114.279 59.4364 114.155 58.9684 114.155 58.4638C114.155 57.9519 114.279 57.4839 114.528 57.0598C114.777 56.6284 115.113 56.292 115.537 56.0507C115.968 55.8021 116.44 55.6778 116.952 55.6778C117.464 55.6778 117.932 55.8021 118.356 56.0507C118.787 56.2993 119.127 56.6357 119.376 57.0598C119.625 57.4839 119.749 57.9519 119.749 58.4638C119.749 58.9684 119.625 59.4364 119.376 59.8678C119.127 60.2919 118.787 60.6283 118.356 60.8769C117.925 61.1255 117.453 61.2499 116.941 61.2499ZM116.941 60.4711C117.299 60.4711 117.625 60.3833 117.917 60.2078C118.217 60.0323 118.451 59.7947 118.619 59.4949C118.795 59.1877 118.882 58.8477 118.882 58.4748C118.882 58.0945 118.798 57.7508 118.63 57.4437C118.462 57.1366 118.228 56.8953 117.928 56.7198C117.636 56.5443 117.31 56.4565 116.952 56.4565C116.586 56.4565 116.257 56.5443 115.965 56.7198C115.672 56.8953 115.442 57.1366 115.274 57.4437C115.106 57.7508 115.021 58.0945 115.021 58.4748C115.021 58.8477 115.106 59.1877 115.274 59.4949C115.442 59.7947 115.672 60.0323 115.965 60.2078C116.257 60.3833 116.583 60.4711 116.941 60.4711ZM121.512 55.7984L123.716 58.2444L121.281 61.1402H120.25L122.696 58.2444L120.459 55.7984H121.512ZM123.826 55.7984H124.671V61.1402H123.826V55.7984ZM128.268 61.1402H127.215L124.78 58.2444L126.985 55.7984H128.027L125.811 58.2225L128.268 61.1402ZM133.736 55.6778V61.1402H132.891V57.3669L129.634 61.2608H129.326V55.7984H130.171V59.5826L133.429 55.6778H133.736ZM136.569 56.5553H134.77V55.7984H139.201V56.5553H137.403V61.1402H136.569V56.5553ZM144.964 58.7271H140.741C140.792 59.2536 141 59.6777 141.366 59.9994C141.732 60.3212 142.178 60.482 142.704 60.482C143.311 60.482 143.856 60.2407 144.338 59.7581L144.832 60.3285C144.554 60.621 144.232 60.8513 143.867 61.0195C143.508 61.1804 143.117 61.2608 142.693 61.2608C142.167 61.2608 141.688 61.1402 141.256 60.8989C140.825 60.6502 140.485 60.3139 140.236 59.8897C139.988 59.4656 139.863 58.994 139.863 58.4748C139.863 57.9629 139.984 57.4949 140.225 57.0708C140.466 56.6394 140.796 56.2993 141.212 56.0507C141.629 55.8021 142.09 55.6778 142.594 55.6778C143.048 55.6778 143.461 55.7801 143.834 55.9849C144.207 56.1896 144.499 56.4748 144.711 56.8404C144.923 57.2061 145.029 57.6229 145.029 58.0909C145.029 58.2956 145.008 58.5077 144.964 58.7271ZM142.572 56.4456C142.126 56.4456 141.739 56.5882 141.41 56.8734C141.081 57.1512 140.869 57.5205 140.774 57.9812H144.163C144.156 57.5059 143.998 57.1329 143.691 56.8624C143.391 56.5845 143.019 56.4456 142.572 56.4456ZM150.44 55.7984V61.1402H149.596V56.5553H147.61L147.588 57.2134C147.559 58.1494 147.49 58.9026 147.38 59.4729C147.27 60.0433 147.095 60.4711 146.853 60.7563C146.612 61.0414 146.283 61.184 145.866 61.184C145.764 61.184 145.669 61.1694 145.581 61.1402V60.4272C145.669 60.4418 145.742 60.4491 145.8 60.4491C146.144 60.4491 146.389 60.1822 146.535 59.6484C146.682 59.1073 146.766 58.2883 146.788 57.1914L146.821 55.7984H150.44ZM152.196 55.7984H153.041V57.6412H154.313C154.92 57.6412 155.403 57.802 155.761 58.1238C156.127 58.4382 156.309 58.8587 156.309 59.3852C156.309 59.9117 156.127 60.3358 155.761 60.6575C155.403 60.9793 154.92 61.1402 154.313 61.1402H152.196V55.7984ZM154.269 60.3943C154.642 60.3943 154.931 60.3029 155.136 60.1201C155.34 59.9373 155.443 59.696 155.443 59.3961C155.443 59.0963 155.337 58.855 155.125 58.6722C154.92 58.4821 154.631 58.387 154.258 58.387H153.041V60.3943H154.269ZM157.678 55.7984H158.522V57.9263H161.144V55.7984H161.989V61.1402H161.144V58.6722H158.522V61.1402H157.678V55.7984ZM163.727 55.7984H164.572V57.6412H165.844C166.444 57.6412 166.927 57.802 167.292 58.1238C167.658 58.4382 167.841 58.8587 167.841 59.3852C167.841 59.919 167.658 60.3468 167.292 60.6685C166.934 60.9829 166.451 61.1402 165.844 61.1402H163.727V55.7984ZM168.619 55.7984H169.464V61.1402H168.619V55.7984ZM165.8 60.3943C166.181 60.3943 166.47 60.3102 166.667 60.142C166.872 59.9665 166.974 59.7179 166.974 59.3961C166.974 59.0744 166.872 58.8258 166.667 58.6503C166.462 58.4748 166.17 58.387 165.789 58.387H164.572V60.3943H165.8ZM175.929 58.7271H171.706C171.757 59.2536 171.965 59.6777 172.331 59.9994C172.697 60.3212 173.143 60.482 173.669 60.482C174.276 60.482 174.821 60.2407 175.304 59.7581L175.797 60.3285C175.519 60.621 175.198 60.8513 174.832 61.0195C174.474 61.1804 174.082 61.2608 173.658 61.2608C173.132 61.2608 172.653 61.1402 172.221 60.8989C171.79 60.6502 171.45 60.3139 171.201 59.8897C170.953 59.4656 170.828 58.994 170.828 58.4748C170.828 57.9629 170.949 57.4949 171.19 57.0708C171.432 56.6394 171.761 56.2993 172.177 56.0507C172.594 55.8021 173.055 55.6778 173.56 55.6778C174.013 55.6778 174.426 55.7801 174.799 55.9849C175.172 56.1896 175.464 56.4748 175.676 56.8404C175.889 57.2061 175.995 57.6229 175.995 58.0909C175.995 58.2956 175.973 58.5077 175.929 58.7271ZM173.538 56.4456C173.092 56.4456 172.704 56.5882 172.375 56.8734C172.046 57.1512 171.834 57.5205 171.739 57.9812H175.128C175.121 57.5059 174.964 57.1329 174.656 56.8624C174.357 56.5845 173.984 56.4456 173.538 56.4456ZM57.8446 67.7545H59.0073V73.1402H57.8446V67.7545ZM62.7805 73.1402H61.3765L59.0511 70.2554L61.212 67.7545H62.5721L60.4113 70.2115L62.7805 73.1402ZM66.6087 67.6339C67.1133 67.6339 67.5667 67.7582 67.9688 68.0068C68.371 68.2481 68.6855 68.5845 68.9122 69.0159C69.1388 69.4401 69.2522 69.9154 69.2522 70.4419C69.2522 70.9757 69.1388 71.4583 68.9122 71.8897C68.6855 72.3139 68.371 72.6502 67.9688 72.8989C67.5667 73.1402 67.1133 73.2608 66.6087 73.2608C66.2431 73.2608 65.9031 73.195 65.5886 73.0634C65.2815 72.9244 65.0219 72.7307 64.8099 72.482V75.1145H63.6582V67.7545H64.7331V68.5114C64.9305 68.2335 65.1938 68.0178 65.5228 67.8642C65.8519 67.7107 66.2139 67.6339 66.6087 67.6339ZM66.4223 72.2078C66.7294 72.2078 67.0073 72.1347 67.2559 71.9885C67.5045 71.8349 67.7019 71.6265 67.8482 71.3632C67.9944 71.1 68.0676 70.7965 68.0676 70.4528C68.0676 70.1092 67.9944 69.8057 67.8482 69.5424C67.7093 69.2719 67.5118 69.0635 67.2559 68.9172C67.0073 68.7637 66.7294 68.6869 66.4223 68.6869C66.1371 68.6869 65.8702 68.7527 65.6216 68.8843C65.3802 69.0086 65.1828 69.2024 65.0292 69.4657C64.8757 69.7289 64.7989 70.0543 64.7989 70.4419C64.7989 70.8294 64.8757 71.1585 65.0292 71.4291C65.1828 71.6923 65.3802 71.8897 65.6216 72.0214C65.8702 72.1457 66.1371 72.2078 66.4223 72.2078ZM75.3163 70.8258H71.3018C71.3749 71.2645 71.5687 71.6119 71.8831 71.8678C72.2049 72.1164 72.5961 72.2407 73.0568 72.2407C73.6198 72.2407 74.1427 72.0287 74.6253 71.6046L75.1737 72.3943C74.5595 72.972 73.8429 73.2608 73.0239 73.2608C72.4754 73.2608 71.9818 73.1402 71.5431 72.8989C71.1043 72.6502 70.757 72.3139 70.5011 71.8897C70.2524 71.4583 70.1281 70.9793 70.1281 70.4528C70.1281 69.9337 70.2488 69.4583 70.4901 69.0269C70.7387 68.5955 71.0751 68.2554 71.4992 68.0068C71.9307 67.7582 72.4023 67.6339 72.9142 67.6339C73.3895 67.6339 73.8136 67.7436 74.1865 67.963C74.5668 68.175 74.8629 68.4675 75.075 68.8404C75.2944 69.2134 75.4041 69.6338 75.4041 70.1018C75.4041 70.3285 75.3748 70.5698 75.3163 70.8258ZM72.8703 68.6101C72.4901 68.6101 72.1573 68.7308 71.8722 68.9721C71.5943 69.2061 71.4115 69.5242 71.3237 69.9263H74.2524C74.245 69.5168 74.1061 69.1951 73.8355 68.9611C73.5723 68.7271 73.2506 68.6101 72.8703 68.6101ZM81.8938 72.142V74.6868H80.775V73.1402H76.8153V74.6868H75.6856V72.142H76.2888C76.5155 71.9007 76.6801 71.5461 76.7824 71.0781C76.8848 70.6027 76.947 69.9739 76.9689 69.1914L77.0128 67.7545H81.0054V72.142H81.8938ZM77.4844 72.142H79.8537V68.7527H78.0548L78.0438 69.3011C78.0146 70.6027 77.8281 71.5497 77.4844 72.142ZM87.7121 67.6339V73.1402H86.5494V69.7947L83.4124 73.2608H83.0066V67.7545H84.1692V71.1219L87.3173 67.6339H87.7121ZM90.3666 68.7527H88.6336V67.7545H93.2514V68.7527H91.5183V73.1402H90.3666V68.7527ZM94.1736 67.7545H95.3363V69.8167H97.6507V67.7545H98.8024V73.1402H97.6507V70.8148H95.3363V73.1402H94.1736V67.7545ZM100.384 67.7545H101.546V69.4657H102.676C103.305 69.4657 103.813 69.6302 104.201 69.9593C104.596 70.2883 104.793 70.7344 104.793 71.2974C104.793 71.8605 104.596 72.3102 104.201 72.6466C103.813 72.9756 103.305 73.1402 102.676 73.1402H100.384V67.7545ZM105.484 67.7545H106.636V73.1402H105.484V67.7545ZM102.632 72.142C102.947 72.142 103.188 72.0725 103.356 71.9336C103.532 71.7874 103.62 71.579 103.62 71.3084C103.62 71.0378 103.532 70.8294 103.356 70.6832C103.181 70.5369 102.936 70.4638 102.621 70.4638H101.546V72.142H102.632ZM113.059 70.8258H109.045C109.118 71.2645 109.312 71.6119 109.626 71.8678C109.948 72.1164 110.339 72.2407 110.8 72.2407C111.363 72.2407 111.886 72.0287 112.368 71.6046L112.917 72.3943C112.302 72.972 111.586 73.2608 110.767 73.2608C110.218 73.2608 109.725 73.1402 109.286 72.8989C108.847 72.6502 108.5 72.3139 108.244 71.8897C107.995 71.4583 107.871 70.9793 107.871 70.4528C107.871 69.9337 107.992 69.4583 108.233 69.0269C108.482 68.5955 108.818 68.2554 109.242 68.0068C109.674 67.7582 110.145 67.6339 110.657 67.6339C111.132 67.6339 111.557 67.7436 111.93 67.963C112.31 68.175 112.606 68.4675 112.818 68.8404C113.037 69.2134 113.147 69.6338 113.147 70.1018C113.147 70.3285 113.118 70.5698 113.059 70.8258ZM110.613 68.6101C110.233 68.6101 109.9 68.7308 109.615 68.9721C109.337 69.2061 109.154 69.5242 109.067 69.9263H111.995C111.988 69.5168 111.849 69.1951 111.579 68.9611C111.315 68.7271 110.994 68.6101 110.613 68.6101ZM120.272 67.6339C120.777 67.6339 121.23 67.7582 121.632 68.0068C122.034 68.2481 122.349 68.5845 122.576 69.0159C122.802 69.4401 122.916 69.9154 122.916 70.4419C122.916 70.9757 122.802 71.4583 122.576 71.8897C122.349 72.3139 122.034 72.6502 121.632 72.8989C121.23 73.1402 120.777 73.2608 120.272 73.2608C119.907 73.2608 119.566 73.195 119.252 73.0634C118.945 72.9244 118.685 72.7307 118.473 72.482V75.1145H117.322V67.7545H118.396V68.5114C118.594 68.2335 118.857 68.0178 119.186 67.8642C119.515 67.7107 119.877 67.6339 120.272 67.6339ZM120.086 72.2078C120.393 72.2078 120.671 72.1347 120.919 71.9885C121.168 71.8349 121.365 71.6265 121.512 71.3632C121.658 71.1 121.731 70.7965 121.731 70.4528C121.731 70.1092 121.658 69.8057 121.512 69.5424C121.373 69.2719 121.175 69.0635 120.919 68.9172C120.671 68.7637 120.393 68.6869 120.086 68.6869C119.8 68.6869 119.534 68.7527 119.285 68.8843C119.044 69.0086 118.846 69.2024 118.693 69.4657C118.539 69.7289 118.462 70.0543 118.462 70.4419C118.462 70.8294 118.539 71.1585 118.693 71.4291C118.846 71.6923 119.044 71.8897 119.285 72.0214C119.534 72.1457 119.8 72.2078 120.086 72.2078ZM128.98 70.8258H124.965C125.038 71.2645 125.232 71.6119 125.547 71.8678C125.868 72.1164 126.259 72.2407 126.72 72.2407C127.283 72.2407 127.806 72.0287 128.289 71.6046L128.837 72.3943C128.223 72.972 127.506 73.2608 126.687 73.2608C126.139 73.2608 125.645 73.1402 125.206 72.8989C124.768 72.6502 124.42 72.3139 124.164 71.8897C123.916 71.4583 123.792 70.9793 123.792 70.4528C123.792 69.9337 123.912 69.4583 124.153 69.0269C124.402 68.5955 124.738 68.2554 125.163 68.0068C125.594 67.7582 126.066 67.6339 126.578 67.6339C127.053 67.6339 127.477 67.7436 127.85 67.963C128.23 68.175 128.526 68.4675 128.738 68.8404C128.958 69.2134 129.067 69.6338 129.067 70.1018C129.067 70.3285 129.038 70.5698 128.98 70.8258ZM126.534 68.6101C126.153 68.6101 125.821 68.7308 125.536 68.9721C125.258 69.2061 125.075 69.5242 124.987 69.9263H127.916C127.908 69.5168 127.77 69.1951 127.499 68.9611C127.236 68.7271 126.914 68.6101 126.534 68.6101ZM130.288 67.7545H131.44V72.142H133.436V67.7545H134.588V72.142H136.584V67.7545H137.736V73.1402H130.288V67.7545ZM144.153 70.8258H140.138C140.212 71.2645 140.405 71.6119 140.72 71.8678C141.041 72.1164 141.433 72.2407 141.893 72.2407C142.456 72.2407 142.979 72.0287 143.462 71.6046L144.01 72.3943C143.396 72.972 142.679 73.2608 141.86 73.2608C141.312 73.2608 140.818 73.1402 140.38 72.8989C139.941 72.6502 139.594 72.3139 139.338 71.8897C139.089 71.4583 138.965 70.9793 138.965 70.4528C138.965 69.9337 139.085 69.4583 139.327 69.0269C139.575 68.5955 139.912 68.2554 140.336 68.0068C140.767 67.7582 141.239 67.6339 141.751 67.6339C142.226 67.6339 142.65 67.7436 143.023 67.963C143.403 68.175 143.7 68.4675 143.912 68.8404C144.131 69.2134 144.241 69.6338 144.241 70.1018C144.241 70.3285 144.211 70.5698 144.153 70.8258ZM141.707 68.6101C141.327 68.6101 140.994 68.7308 140.709 68.9721C140.431 69.2061 140.248 69.5242 140.16 69.9263H143.089C143.082 69.5168 142.943 69.1951 142.672 68.9611C142.409 68.7271 142.087 68.6101 141.707 68.6101ZM145.462 67.7545H146.624V69.8167H148.939V67.7545H150.09V73.1402H148.939V70.8148H146.624V73.1402H145.462V67.7545ZM156.377 67.6339V73.1402H155.215V69.7947L152.078 73.2608H151.672V67.7545H152.834V71.1219L155.982 67.6339H156.377ZM162.18 67.7545V73.1402H161.028V71.3303H160.227L158.834 73.1402H157.507L159.054 71.1768C158.674 71.0378 158.377 70.8294 158.165 70.5516C157.953 70.2664 157.847 69.93 157.847 69.5424C157.847 69.0013 158.03 68.5699 158.396 68.2481C158.769 67.9191 159.266 67.7545 159.887 67.7545H162.18ZM161.028 68.7527H159.942C159.657 68.7527 159.434 68.8258 159.273 68.9721C159.112 69.111 159.032 69.3048 159.032 69.5534C159.032 69.802 159.112 69.9995 159.273 70.1457C159.441 70.2847 159.668 70.3541 159.953 70.3541H161.028V68.7527Z" fill="#1E1E1E"/>
</svg>
