<svg xmlns="http://www.w3.org/2000/svg" width="48" height="56" viewBox="0 0 48 56" fill="none">
                                    <g filter="url(#filter0_dddd_7_423)">
                                    <circle cx="24" cy="21" r="20" fill="#EEEEEE"/>
                                    </g>
                                    <path d="M20.125 20.5H20.1253C21.02 20.499 21.8778 20.1431 22.5105 19.5105C23.1431 18.8778 23.499 18.02 23.5 17.1253V17.125C23.5 16.4575 23.3021 15.805 22.9312 15.25C22.5604 14.6949 22.0333 14.2624 21.4166 14.0069C20.7999 13.7515 20.1213 13.6846 19.4666 13.8149C18.8119 13.9451 18.2105 14.2665 17.7385 14.7385C17.2665 15.2105 16.9451 15.8119 16.8149 16.4666C16.6846 17.1213 16.7515 17.7999 17.0069 18.4166C17.2624 19.0333 17.6949 19.5604 18.25 19.9312C18.805 20.3021 19.4575 20.5 20.125 20.5ZM19.2222 15.7739C19.4894 15.5953 19.8035 15.5 20.1248 15.5C20.5557 15.5005 20.9688 15.6719 21.2734 15.9766C21.5781 16.2813 21.7495 16.6944 21.75 17.1253C21.7499 17.4466 21.6546 17.7606 21.4761 18.0278C21.2976 18.295 21.0438 18.5033 20.7469 18.6263C20.4499 18.7493 20.1232 18.7815 19.808 18.7188C19.4928 18.6561 19.2032 18.5013 18.976 18.274C18.7487 18.0468 18.5939 17.7572 18.5312 17.442C18.4685 17.1268 18.5007 16.8001 18.6237 16.5031C18.7467 16.2062 18.955 15.9524 19.2222 15.7739Z" fill="#21BA72" stroke="#21BA72" stroke-width="0.5"/>
                                    <path d="M31.293 13.8232L31.1162 13.6465L30.9394 13.8232L16.8232 27.9394L16.6464 28.1162L16.8232 28.293L17.707 29.1768L17.8838 29.3536L18.0606 29.1768L32.1768 15.0606L32.3535 14.8838L32.1768 14.707L31.293 13.8232Z" fill="#21BA72" stroke="#21BA72" stroke-width="0.5"/>
                                    <path d="M28.875 29.25H28.8753C29.77 29.249 30.6278 28.8932 31.2605 28.2605C31.8932 27.6278 32.249 26.77 32.25 25.8753V25.875C32.25 25.2075 32.0521 24.555 31.6812 24C31.3104 23.4449 30.7833 23.0124 30.1666 22.7569C29.5499 22.5015 28.8713 22.4346 28.2166 22.5649C27.5619 22.6951 26.9605 23.0165 26.4885 23.4885C26.0165 23.9605 25.6951 24.5619 25.5649 25.2166C25.4346 25.8713 25.5015 26.5499 25.7569 27.1666C26.0124 27.7833 26.4449 28.3104 27 28.6812C27.555 29.0521 28.2075 29.25 28.875 29.25ZM27.9722 24.5239C28.2394 24.3453 28.5535 24.25 28.8748 24.25C29.3057 24.2505 29.7188 24.4219 30.0234 24.7266C30.3281 25.0313 30.4995 25.4444 30.5 25.8753C30.4999 26.1966 30.4046 26.5106 30.2261 26.7778C30.0476 27.045 29.7938 27.2533 29.4969 27.3763C29.1999 27.4993 28.8732 27.5315 28.558 27.4688C28.2428 27.4061 27.9532 27.2513 27.726 27.024C27.4987 26.7968 27.3439 26.5072 27.2812 26.192C27.2185 25.8768 27.2507 25.5501 27.3737 25.2531C27.4967 24.9562 27.705 24.7024 27.9722 24.5239Z" fill="#21BA72" stroke="#21BA72" stroke-width="0.5"/>
                                    <defs>
                                    <filter id="filter0_dddd_7_423" x="0" y="0" width="48" height="56" filterUnits="userSpaceOnUse" color-interpolation-filters="sRGB">
                                        <feFlood flood-opacity="0" result="BackgroundImageFix"/>
                                        <feColorMatrix in="SourceAlpha" type="matrix" values="0 0 0 0 0 0 0 0 0 0 0 0 0 0 0 0 0 0 127 0" result="hardAlpha"/>
                                        <feOffset dy="1"/>
                                        <feGaussianBlur stdDeviation="1"/>
                                        <feColorMatrix type="matrix" values="0 0 0 0 0 0 0 0 0 0 0 0 0 0 0 0 0 0 0.05 0"/>
                                        <feBlend mode="normal" in2="BackgroundImageFix" result="effect1_dropShadow_7_423"/>
                                        <feColorMatrix in="SourceAlpha" type="matrix" values="0 0 0 0 0 0 0 0 0 0 0 0 0 0 0 0 0 0 127 0" result="hardAlpha"/>
                                        <feOffset dy="3"/>
                                        <feGaussianBlur stdDeviation="1.5"/>
                                        <feColorMatrix type="matrix" values="0 0 0 0 0 0 0 0 0 0 0 0 0 0 0 0 0 0 0.04 0"/>
                                        <feBlend mode="normal" in2="effect1_dropShadow_7_423" result="effect2_dropShadow_7_423"/>
                                        <feColorMatrix in="SourceAlpha" type="matrix" values="0 0 0 0 0 0 0 0 0 0 0 0 0 0 0 0 0 0 127 0" result="hardAlpha"/>
                                        <feOffset dy="6"/>
                                        <feGaussianBlur stdDeviation="2"/>
                                        <feColorMatrix type="matrix" values="0 0 0 0 0 0 0 0 0 0 0 0 0 0 0 0 0 0 0.03 0"/>
                                        <feBlend mode="normal" in2="effect2_dropShadow_7_423" result="effect3_dropShadow_7_423"/>
                                        <feColorMatrix in="SourceAlpha" type="matrix" values="0 0 0 0 0 0 0 0 0 0 0 0 0 0 0 0 0 0 127 0" result="hardAlpha"/>
                                        <feOffset dy="11"/>
                                        <feGaussianBlur stdDeviation="2"/>
                                        <feColorMatrix type="matrix" values="0 0 0 0 0 0 0 0 0 0 0 0 0 0 0 0 0 0 0.01 0"/>
                                        <feBlend mode="normal" in2="effect3_dropShadow_7_423" result="effect4_dropShadow_7_423"/>
                                        <feBlend mode="normal" in="SourceGraphic" in2="effect4_dropShadow_7_423" result="shape"/>
                                    </filter>
                                    </defs>
                                </svg>